<svg width="1440" height="554" viewBox="0 0 1440 554" fill="none" xmlns="http://www.w3.org/2000/svg">
<g style="mix-blend-mode:multiply" opacity="0.35">
<path d="M393.178 147.142H312.052V423.216H393.178V147.142Z" fill="#B5C3C2"/>
<path d="M379.966 124.071H325.342V213.267H379.966V124.071Z" fill="#B5C3C2"/>
<path d="M367.759 109.411H337.472V184.564H367.759V109.411Z" fill="#B5C3C2"/>
<path d="M362.969 147.991H342.262V96.8343H349.757H357.097H362.969V147.991Z" fill="#B5C3C2"/>
<path d="M351.225 125.692H348.984V74.5354H349.834H350.607H351.225V125.692Z" fill="#B5C3C2"/>
<path d="M356.247 108.022H354.006V56.7889H354.779H355.551H356.247V108.022Z" fill="#B5C3C2"/>
<path d="M395.342 146.37H309.889V149.765H395.342V146.37Z" fill="#B5C3C2"/>
<path d="M381.898 122.374H323.333V125.692H381.898V122.374Z" fill="#B5C3C2"/>
<path d="M368.995 108.022H335.231V110.569H368.995V108.022Z" fill="#B5C3C2"/>
<path opacity="0.29" d="M332.913 129.55H330.364V143.747H332.913V129.55Z" fill="#B5C3C2"/>
<path opacity="0.29" d="M339.944 129.55H337.395V143.747H339.944V129.55Z" fill="#B5C3C2"/>
<path opacity="0.29" d="M346.898 129.55H344.348V143.747H346.898V129.55Z" fill="#B5C3C2"/>
<path opacity="0.29" d="M353.929 129.55H351.379V143.747H353.929V129.55Z" fill="#B5C3C2"/>
<path opacity="0.29" d="M360.96 129.55H358.41V143.747H360.96V129.55Z" fill="#B5C3C2"/>
<path opacity="0.29" d="M367.991 129.55H365.441V143.747H367.991V129.55Z" fill="#B5C3C2"/>
<path opacity="0.29" d="M375.022 129.55H372.472V143.747H375.022V129.55Z" fill="#B5C3C2"/>
<path d="M325.264 160.027H319.161V176.848H325.264V160.027Z" fill="#B5C3C2"/>
<path opacity="0.29" d="M337.395 160.027H331.291V176.848H337.395V160.027Z" fill="#B5C3C2"/>
<path d="M349.602 160.027H343.499V176.848H349.602V160.027Z" fill="#B5C3C2"/>
<path d="M361.732 160.027H355.629V176.848H361.732V160.027Z" fill="#B5C3C2"/>
<path d="M373.863 160.027H367.759V176.848H373.863V160.027Z" fill="#B5C3C2"/>
<path d="M385.993 160.027H379.889V176.848H385.993V160.027Z" fill="#B5C3C2"/>
<path d="M325.264 156.864H319.161V186.338H325.264V156.864Z" fill="#B5C3C2"/>
<path d="M337.395 156.864H331.291V186.338H337.395V156.864Z" fill="#B5C3C2"/>
<path d="M349.602 156.864H343.499V186.338H349.602V156.864Z" fill="#B5C3C2"/>
<path opacity="0.29" d="M361.732 156.864H355.629V186.338H361.732V156.864Z" fill="#B5C3C2"/>
<path d="M373.863 156.864H367.759V186.338H373.863V156.864Z" fill="#B5C3C2"/>
<path d="M385.993 156.864H379.889V186.338H385.993V156.864Z" fill="#B5C3C2"/>
<path d="M325.264 166.2H319.161V183.021H325.264V166.2Z" fill="#B5C3C2"/>
<path d="M337.395 166.2H331.291V183.021H337.395V166.2Z" fill="#B5C3C2"/>
<path d="M349.602 166.2H343.499V183.021H349.602V166.2Z" fill="#B5C3C2"/>
<path d="M361.732 166.2H355.629V183.021H361.732V166.2Z" fill="#B5C3C2"/>
<path opacity="0.29" d="M373.863 166.2H367.759V183.021H373.863V166.2Z" fill="#B5C3C2"/>
<path opacity="0.29" d="M385.993 166.2H379.889V183.021H385.993V166.2Z" fill="#B5C3C2"/>
<path opacity="0.29" d="M325.264 192.511H319.161V209.332H325.264V192.511Z" fill="#B5C3C2"/>
<path d="M337.395 192.511H331.291V209.332H337.395V192.511Z" fill="#B5C3C2"/>
<path d="M349.602 192.511H343.499V209.332H349.602V192.511Z" fill="#B5C3C2"/>
<path d="M361.732 192.511H355.629V209.332H361.732V192.511Z" fill="#B5C3C2"/>
<path d="M373.863 192.511H367.759V209.332H373.863V192.511Z" fill="#B5C3C2"/>
<path d="M385.993 192.511H379.889V209.332H385.993V192.511Z" fill="#B5C3C2"/>
<path d="M325.264 218.745H319.161V235.566H325.264V218.745Z" fill="#B5C3C2"/>
<path opacity="0.29" d="M337.395 218.745H331.291V235.566H337.395V218.745Z" fill="#B5C3C2"/>
<path d="M349.602 218.745H343.499V235.566H349.602V218.745Z" fill="#B5C3C2"/>
<path opacity="0.29" d="M361.732 218.745H355.629V235.566H361.732V218.745Z" fill="#B5C3C2"/>
<path d="M373.863 218.745H367.759V235.566H373.863V218.745Z" fill="#B5C3C2"/>
<path d="M385.993 218.745H379.889V235.566H385.993V218.745Z" fill="#B5C3C2"/>
<path d="M325.264 244.979H319.161V261.8H325.264V244.979Z" fill="#B5C3C2"/>
<path d="M337.395 244.979H331.291V261.8H337.395V244.979Z" fill="#B5C3C2"/>
<path d="M349.602 244.979H343.499V261.8H349.602V244.979Z" fill="#B5C3C2"/>
<path d="M361.732 244.979H355.629V261.8H361.732V244.979Z" fill="#B5C3C2"/>
<path d="M373.863 244.979H367.759V261.8H373.863V244.979Z" fill="#B5C3C2"/>
<path opacity="0.29" d="M385.993 244.979H379.889V261.8H385.993V244.979Z" fill="#B5C3C2"/>
<path d="M325.264 271.213H319.161V288.034H325.264V271.213Z" fill="#B5C3C2"/>
<path opacity="0.29" d="M337.395 271.213H331.291V288.034H337.395V271.213Z" fill="#B5C3C2"/>
<path opacity="0.29" d="M349.602 271.213H343.499V288.034H349.602V271.213Z" fill="#B5C3C2"/>
<path d="M361.732 271.213H355.629V288.034H361.732V271.213Z" fill="#B5C3C2"/>
<path d="M373.863 271.213H367.759V288.034H373.863V271.213Z" fill="#B5C3C2"/>
<path d="M385.993 271.213H379.889V288.034H385.993V271.213Z" fill="#B5C3C2"/>
<path d="M325.264 297.524H319.161V314.345H325.264V297.524Z" fill="#B5C3C2"/>
<path d="M337.395 297.524H331.291V314.345H337.395V297.524Z" fill="#B5C3C2"/>
<path d="M349.602 297.524H343.499V314.345H349.602V297.524Z" fill="#B5C3C2"/>
<path d="M361.732 297.524H355.629V314.345H361.732V297.524Z" fill="#B5C3C2"/>
<path opacity="0.29" d="M373.863 297.524H367.759V314.345H373.863V297.524Z" fill="#B5C3C2"/>
<path d="M385.993 297.524H379.889V314.345H385.993V297.524Z" fill="#B5C3C2"/>
<path d="M325.264 323.758H319.161V340.579H325.264V323.758Z" fill="#B5C3C2"/>
<path opacity="0.29" d="M337.395 323.758H331.291V340.579H337.395V323.758Z" fill="#B5C3C2"/>
<path d="M349.602 323.758H343.499V340.579H349.602V323.758Z" fill="#B5C3C2"/>
<path d="M361.732 323.758H355.629V340.579H361.732V323.758Z" fill="#B5C3C2"/>
<path d="M373.863 323.758H367.759V340.579H373.863V323.758Z" fill="#B5C3C2"/>
<path d="M385.993 323.758H379.889V340.579H385.993V323.758Z" fill="#B5C3C2"/>
<path d="M325.264 349.992H319.161V366.813H325.264V349.992Z" fill="#B5C3C2"/>
<path d="M337.395 349.992H331.291V366.813H337.395V349.992Z" fill="#B5C3C2"/>
<path d="M349.602 349.992H343.499V366.813H349.602V349.992Z" fill="#B5C3C2"/>
<path opacity="0.29" d="M361.732 349.992H355.629V366.813H361.732V349.992Z" fill="#B5C3C2"/>
<path d="M373.863 349.992H367.759V366.813H373.863V349.992Z" fill="#B5C3C2"/>
<path opacity="0.29" d="M385.993 349.992H379.889V366.813H385.993V349.992Z" fill="#B5C3C2"/>
<path opacity="0.29" d="M325.264 376.226H319.161V393.047H325.264V376.226Z" fill="#B5C3C2"/>
<path d="M337.395 376.226H331.291V393.047H337.395V376.226Z" fill="#B5C3C2"/>
<path opacity="0.29" d="M349.602 376.226H343.499V393.047H349.602V376.226Z" fill="#B5C3C2"/>
<path d="M361.732 376.226H355.629V393.047H361.732V376.226Z" fill="#B5C3C2"/>
<path d="M373.863 376.226H367.759V393.047H373.863V376.226Z" fill="#B5C3C2"/>
<path d="M385.993 376.226H379.889V393.047H385.993V376.226Z" fill="#B5C3C2"/>
<path d="M206.821 128.547H76.4788V384.714H206.821V128.547Z" fill="#B5C3C2"/>
<path d="M210.607 123.917H72.8474V131.556H210.607V123.917Z" fill="#B5C3C2"/>
<path d="M202.494 114.041H80.8828V150.537H202.494V114.041Z" fill="#B5C3C2"/>
<path d="M138.366 99.149H90.2314V139.04H138.366V99.149Z" fill="#B5C3C2"/>
<path d="M118.046 110.414H90.2314V89.427H110.165L118.046 110.414Z" fill="#B5C3C2"/>
<path d="M104.139 71.9891H101.435V118.747H104.139V71.9891Z" fill="#B5C3C2"/>
<path d="M102.825 71.912C104.148 71.912 105.22 70.8411 105.22 69.52C105.22 68.199 104.148 67.1281 102.825 67.1281C101.503 67.1281 100.43 68.199 100.43 69.52C100.43 70.8411 101.503 71.912 102.825 71.912Z" fill="#B5C3C2"/>
<path d="M1286.57 405.392H1143.78L1126.01 29.2432L1286.57 62.4986V405.392Z" fill="#B5C3C2"/>
<path d="M663.906 177.388V136.417H641.5V100.692H633.542V48.2242H589.502V9.72201H585.562V48.2242H576.909V0H572.968V48.2242H545.154V136.417H530.783V177.388H518.421V420.515H672.56V177.388H663.906Z" fill="#B5C3C2"/>
<path d="M1599.48 400.454H-105.707V440.962H1599.48V400.454Z" fill="#B5C3C2"/>
<path d="M898.012 431.009H822.526L851.963 280.009H898.012V431.009Z" fill="#95A9A7"/>
<path d="M1623.43 436.873H-166.898V553.923H1623.43V436.873Z" fill="#95A9A7"/>
<path d="M836.125 151.617V115.584H811.864V90.1214H798.961V68.6713H794.403V32.0209H793.167V68.6713H788.608V90.1214H775.705V115.584H751.599V151.617H746.577V273.065H709.337V411.565H746.577H783.895H840.992V151.617H836.125Z" fill="#95A9A7"/>
<path d="M975.506 228.467H858.144V230.628H863.398V428.771H970.175V230.628H975.506V228.467Z" fill="#95A9A7"/>
<path d="M440.386 277.849H336.313V442.891H440.386V277.849Z" fill="#95A9A7"/>
<path d="M320.629 362.415H141.688V442.891H320.629V362.415Z" fill="#95A9A7"/>
<path d="M276.898 182.558H237.648V380.238H276.898V182.558Z" fill="#95A9A7"/>
<path d="M248.311 129.858H246.302V237.34H248.311V129.858Z" fill="#95A9A7"/>
<path d="M254.955 137.96H252.947V245.442H254.955V137.96Z" fill="#95A9A7"/>
<path d="M264.691 170.367H240.662V196.832H264.691V170.367Z" fill="#95A9A7"/>
<path d="M381.975 307.401H313.598V442.891H381.975V307.401Z" fill="#95A9A7"/>
<path d="M585.562 163.962H457.229V442.891H585.562V163.962Z" fill="#95A9A7"/>
<path d="M572.968 154.395H469.823V200.844H572.968V154.395Z" fill="#95A9A7"/>
<path d="M595.452 169.826H447.262V173.067H595.452V169.826Z" fill="#95A9A7"/>
<path d="M494.47 301.999H433.973V442.891H494.47V301.999Z" fill="#95A9A7"/>
<path d="M70.2978 296.675H0.916016V442.891H70.2978V296.675Z" fill="#95A9A7"/>
<path d="M161.545 256.939H23.3223V442.891H161.545V256.939Z" fill="#95A9A7"/>
<path d="M165.176 249.84H15.2869V256.939H165.176V249.84Z" fill="#95A9A7"/>
<path d="M90.2316 230.473H29.5032V268.204H90.2316V230.473Z" fill="#95A9A7"/>
<path d="M120.287 230.473H110.088V253.389H120.287V230.473Z" fill="#95A9A7"/>
<path d="M141.688 230.473H130.485V253.389H141.688V230.473Z" fill="#95A9A7"/>
<path d="M35.6069 386.334H-36.8655V442.891H35.6069V386.334Z" fill="#95A9A7"/>
<path d="M1295.37 380.238H572.968V442.891H1295.37V380.238Z" fill="#95A9A7"/>
<path d="M1237.66 206.786C1233.1 206.786 1229.39 210.258 1229.01 214.733L1218.81 214.424C1218.81 213.421 1218.88 212.418 1218.88 211.415C1218.88 198.761 1216.72 186.493 1212.55 174.919L1221.05 171.833C1222.36 174.919 1225.45 177.079 1229.01 177.079C1233.8 177.079 1237.66 173.221 1237.66 168.438C1237.66 163.654 1233.8 159.796 1229.01 159.796C1224.21 159.796 1220.35 163.654 1220.35 168.438C1220.35 169.286 1220.51 170.212 1220.74 170.984L1212.24 174.07C1207.37 161.108 1200.03 149.148 1190.37 138.731L1197.02 132.482C1198.56 133.948 1200.65 134.874 1203.04 134.874C1207.84 134.874 1211.7 131.016 1211.7 126.232C1211.7 121.448 1207.84 117.59 1203.04 117.59C1198.25 117.59 1194.39 121.448 1194.39 126.232C1194.39 128.315 1195.16 130.321 1196.4 131.787L1189.76 138.037C1189.06 137.343 1188.36 136.571 1187.67 135.877C1177.63 125.846 1165.88 118.053 1153.13 112.729L1156.76 103.856C1157.61 104.087 1158.46 104.241 1159.39 104.241C1164.18 104.241 1168.04 100.384 1168.04 95.5997C1168.04 90.8159 1164.18 86.9579 1159.39 86.9579C1154.6 86.9579 1150.74 90.8159 1150.74 95.5997C1150.74 99.149 1152.82 102.158 1155.91 103.547L1152.28 112.42C1140.85 107.791 1128.64 105.167 1116.05 104.704L1116.43 92.5905C1116.51 92.5905 1116.59 92.5905 1116.74 92.5905C1121.53 92.5905 1125.4 88.7326 1125.4 83.9487C1125.4 79.1649 1121.53 75.3069 1116.74 75.3069C1111.95 75.3069 1108.09 79.1649 1108.09 83.9487C1108.09 88.3468 1111.33 91.8961 1115.51 92.5134L1115.12 104.704C1114.12 104.704 1113.11 104.627 1112.11 104.627C1099.98 104.627 1088.16 106.633 1076.95 110.491L1073.48 100.538C1076.64 99.2262 1078.88 96.1398 1078.88 92.5134C1078.88 87.7295 1075.02 83.8716 1070.23 83.8716C1065.44 83.8716 1061.58 87.7295 1061.58 92.5134C1061.58 97.2972 1065.44 101.155 1070.23 101.155C1071.08 101.155 1071.85 101.001 1072.63 100.847L1076.1 110.8C1062.58 115.584 1050.14 123.145 1039.33 133.176L1032.99 126.386C1034.38 124.843 1035.31 122.76 1035.31 120.522C1035.31 115.738 1031.44 111.88 1026.65 111.88C1021.86 111.88 1018 115.738 1018 120.522C1018 125.306 1021.86 129.164 1026.65 129.164C1028.82 129.164 1030.83 128.392 1032.37 127.003L1038.71 133.716C1038.01 134.411 1037.24 135.105 1036.54 135.799C1027.58 144.75 1020.4 155.012 1015.22 166.123L1007.18 162.419C1007.49 161.57 1007.65 160.645 1007.65 159.641C1007.65 154.858 1003.78 151 998.994 151C994.204 151 990.341 154.858 990.341 159.641C990.341 164.425 994.204 168.283 998.994 168.283C1002.47 168.283 1005.48 166.2 1006.87 163.268L1014.91 166.972C1009.19 179.548 1005.87 193.206 1005.41 207.403L995.054 207.094C994.899 202.387 991.113 198.684 986.4 198.684C981.61 198.684 977.747 202.542 977.747 207.326C977.747 212.109 981.61 215.967 986.4 215.967C990.959 215.967 994.667 212.495 995.054 208.02L1005.41 208.329C1005.41 209.332 1005.33 210.335 1005.33 211.338C1005.33 223.992 1007.49 236.26 1011.67 247.834L1003.17 250.92C1001.85 247.834 998.762 245.674 995.208 245.674C990.418 245.674 986.555 249.531 986.555 254.315C986.555 259.099 990.418 262.957 995.208 262.957C999.999 262.957 1003.86 259.099 1003.86 254.315C1003.86 253.467 1003.71 252.618 1003.48 251.769L1011.97 248.683C1016.84 261.645 1024.18 273.605 1033.84 284.021L1027.2 290.271C1025.65 288.805 1023.56 287.879 1021.17 287.879C1016.38 287.879 1012.52 291.737 1012.52 296.521C1012.52 301.305 1016.38 305.163 1021.17 305.163C1025.96 305.163 1029.82 301.305 1029.82 296.521C1029.82 294.438 1029.05 292.432 1027.81 290.966L1034.46 284.716C1035.15 285.41 1035.85 286.182 1036.54 286.876C1043.34 293.666 1050.84 299.376 1058.95 304.006L1006.33 400.454H996.908V403.232H992.272V408.71H1231.48V403.232H1226.84V400.454H1217.42L1165.19 304.083C1172.14 300.07 1178.71 295.287 1184.73 289.654L1193.23 298.682C1191.38 300.302 1190.3 302.617 1190.3 305.24C1190.3 310.024 1194.16 313.882 1198.95 313.882C1203.74 313.882 1207.6 310.024 1207.6 305.24C1207.6 300.456 1203.74 296.598 1198.95 296.598C1197.1 296.598 1195.4 297.138 1194.01 298.141L1185.43 289.037C1186.12 288.342 1186.9 287.648 1187.59 286.953C1196.55 278.003 1203.74 267.741 1208.92 256.63L1218.34 260.951C1218.19 261.645 1218.11 262.34 1218.11 263.111C1218.11 267.895 1221.97 271.753 1226.76 271.753C1231.55 271.753 1235.42 267.895 1235.42 263.111C1235.42 258.328 1231.55 254.47 1226.76 254.47C1223.06 254.47 1219.89 256.784 1218.65 260.102L1209.3 255.781C1215.02 243.204 1218.34 229.547 1218.81 215.35L1229.01 215.659C1229.16 220.365 1232.95 224.069 1237.66 224.069C1242.45 224.069 1246.31 220.211 1246.31 215.427C1246.39 210.643 1242.45 206.786 1237.66 206.786ZM1216.02 211.415C1216.02 212.418 1216.02 213.344 1215.95 214.347L1185.97 213.344C1185.97 212.727 1185.97 212.032 1185.97 211.415C1185.97 202.619 1184.42 194.131 1181.57 186.261L1209.77 175.922C1213.86 187.11 1216.02 199.07 1216.02 211.415ZM1184.58 213.267L1117.75 211.106C1117.75 210.643 1117.67 210.258 1117.52 209.872L1180.25 186.801C1183.03 194.517 1184.58 202.773 1184.58 211.415C1184.58 212.032 1184.58 212.65 1184.58 213.267ZM1039.33 209.486L1106.16 211.646C1106.16 212.109 1106.23 212.495 1106.39 212.881L1043.65 235.952C1040.87 228.236 1039.33 219.98 1039.33 211.338C1039.25 210.798 1039.25 210.103 1039.33 209.486ZM1116.51 207.789L1165.26 162.188C1171.6 168.978 1176.62 177.079 1179.94 185.875L1117.21 208.946C1117.05 208.483 1116.82 208.097 1116.51 207.789ZM1115.82 207.094C1115.43 206.785 1115.04 206.477 1114.58 206.245L1140 144.518C1149.35 148.453 1157.69 154.24 1164.65 161.493L1115.82 207.094ZM1113.73 205.86C1113.34 205.782 1113.03 205.705 1112.65 205.628L1114.81 138.886C1123.39 139.194 1131.58 141.046 1139.15 144.055L1113.73 205.86ZM1111.64 205.551C1111.26 205.551 1110.87 205.628 1110.48 205.705L1088.23 142.744C1095.65 140.197 1103.61 138.809 1111.95 138.809C1112.57 138.809 1113.19 138.809 1113.81 138.809L1111.64 205.551ZM1109.56 206.091C1109.09 206.323 1108.71 206.554 1108.32 206.863L1062.66 158.175C1069.77 151.617 1078.11 146.447 1087.38 143.13L1109.56 206.091ZM1107.63 207.48C1107.32 207.789 1107.08 208.174 1106.85 208.483L1046.2 180.552C1050.06 172.373 1055.47 164.965 1061.96 158.793L1107.63 207.48ZM1106.47 209.409C1106.31 209.795 1106.23 210.258 1106.16 210.721L1039.33 208.56C1039.71 198.915 1041.95 189.733 1045.74 181.4L1106.47 209.409ZM1106.62 213.884C1106.78 214.193 1106.93 214.501 1107.16 214.81L1106.78 215.504L1058.56 260.642C1052.23 253.852 1047.21 245.751 1043.88 236.955L1106.62 213.884ZM1105.31 218.205L1075.02 273.914C1069.15 270.441 1063.82 266.198 1059.18 261.337L1105.31 218.205ZM1108.63 216.199C1108.86 216.353 1109.02 216.43 1109.25 216.585L1083.83 278.312C1081.36 277.309 1079.04 276.151 1076.72 274.84L1108.63 216.199ZM1110.18 216.97C1110.56 217.048 1110.87 217.125 1111.26 217.202L1109.09 283.944C1100.52 283.636 1092.33 281.784 1084.76 278.775L1110.18 216.97ZM1111.95 283.944C1111.33 283.944 1110.72 283.944 1110.1 283.944L1112.26 217.202C1112.65 217.202 1113.03 217.125 1113.42 217.048L1135.67 280.009C1128.18 282.555 1120.22 283.944 1111.95 283.944ZM1114.35 216.739C1114.66 216.585 1114.97 216.43 1115.27 216.199L1147.18 274.84C1143.78 276.691 1140.31 278.312 1136.6 279.623L1114.35 216.739ZM1119.68 220.365L1161.25 264.655C1157.46 268.204 1153.29 271.29 1148.81 273.914L1119.68 220.365ZM1117.9 216.97L1116.67 214.733C1116.82 214.579 1116.9 214.347 1116.97 214.193L1177.63 242.201C1173.76 250.38 1168.35 257.787 1161.86 263.96L1117.9 216.97ZM1117.44 213.421C1117.59 213.035 1117.67 212.572 1117.75 212.109L1184.58 214.27C1184.19 223.915 1181.95 233.097 1178.17 241.43L1117.44 213.421ZM1083.36 279.701L1071.93 307.401C1068.45 305.935 1065.05 304.314 1061.73 302.462L1076.02 276.074C1078.42 277.463 1080.82 278.62 1083.36 279.701ZM1084.21 280.009C1091.94 283.096 1100.29 284.947 1109.02 285.333L1108.01 315.271C1095.73 314.808 1083.83 312.262 1072.78 307.786L1084.21 280.009ZM1110.02 285.41C1110.64 285.41 1111.33 285.41 1111.95 285.41C1120.45 285.41 1128.56 283.944 1136.14 281.398L1146.1 309.638C1135.29 313.419 1123.77 315.348 1111.95 315.348C1110.95 315.348 1110.02 315.348 1109.02 315.271L1110.02 285.41ZM1136.99 281.012C1140.69 279.701 1144.33 278.003 1147.72 276.151L1162.02 302.54C1157.15 305.24 1152.13 307.478 1146.87 309.33L1136.99 281.012ZM1209.46 174.996L1181.26 185.335C1177.86 176.308 1172.68 168.129 1166.27 161.108L1188.13 140.583C1197.64 150.768 1204.74 162.419 1209.46 174.996ZM1185.51 137.883C1186.2 138.577 1186.9 139.272 1187.52 139.966L1165.65 160.49C1158.62 153.083 1150.04 147.142 1140.54 143.13L1151.97 115.43C1164.34 120.522 1175.77 128.084 1185.51 137.883ZM1151.05 115.044L1139.61 142.744C1131.89 139.657 1123.54 137.806 1114.81 137.42L1115.82 107.482C1128.02 107.945 1139.92 110.491 1151.05 115.044ZM1111.95 107.482C1112.96 107.482 1113.88 107.482 1114.89 107.559L1113.88 137.497C1113.27 137.497 1112.57 137.497 1111.95 137.497C1103.45 137.497 1095.34 138.963 1087.77 141.509L1077.8 113.269C1088.62 109.411 1100.13 107.482 1111.95 107.482ZM1076.87 113.501L1086.84 141.741C1077.42 145.136 1068.84 150.382 1061.65 157.095L1041.1 135.259C1051.61 125.46 1063.74 118.13 1076.87 113.501ZM1038.32 137.883C1039.02 137.188 1039.71 136.494 1040.41 135.877L1060.96 157.713C1054.31 164.04 1048.83 171.524 1044.89 179.934L1017.61 167.357C1022.64 156.555 1029.59 146.602 1038.32 137.883ZM1017.15 168.206L1044.42 180.783C1040.56 189.27 1038.24 198.607 1037.86 208.483L1007.88 207.48C1008.42 193.746 1011.59 180.474 1017.15 168.206ZM1007.88 211.415C1007.88 210.412 1007.88 209.486 1007.96 208.483L1037.93 209.486C1037.93 210.103 1037.93 210.798 1037.93 211.415C1037.93 220.211 1039.48 228.699 1042.34 236.569L1014.14 246.908C1009.97 235.643 1007.88 223.683 1007.88 211.415ZM1014.37 247.757L1042.57 237.418C1045.97 246.445 1051.15 254.624 1057.56 261.645L1035.69 282.17C1026.27 271.985 1019.08 260.411 1014.37 247.757ZM1038.32 284.87C1037.63 284.176 1036.93 283.481 1036.31 282.787L1058.18 262.263C1062.97 267.278 1068.38 271.599 1074.33 275.148L1060.03 301.536C1052.23 297.061 1044.89 291.429 1038.32 284.87ZM1215.33 400.454H1008.5L1060.34 305.009C1063.74 306.86 1067.22 308.558 1070.77 310.024L1067.14 318.897C1066.29 318.666 1065.44 318.511 1064.51 318.511C1059.72 318.511 1055.86 322.369 1055.86 327.153C1055.86 331.937 1059.72 335.795 1064.51 335.795C1069.3 335.795 1073.17 331.937 1073.17 327.153C1073.17 323.604 1071.08 320.595 1067.99 319.206L1071.62 310.333C1083.06 314.962 1095.26 317.586 1107.86 318.048L1107.55 327.153C1102.84 327.23 1099.05 331.088 1099.05 335.795C1099.05 340.579 1102.91 344.437 1107.7 344.437C1112.49 344.437 1116.36 340.579 1116.36 335.795C1116.36 331.243 1112.88 327.539 1108.48 327.153L1108.78 318.048C1109.79 318.048 1110.79 318.126 1111.8 318.126C1123.93 318.126 1135.75 316.12 1146.95 312.262L1150.04 321.135C1147.11 322.524 1145.02 325.533 1145.02 329.005C1145.02 333.789 1148.88 337.647 1153.67 337.647C1158.46 337.647 1162.33 333.789 1162.33 329.005C1162.33 324.221 1158.46 320.363 1153.67 320.363C1152.67 320.363 1151.74 320.518 1150.89 320.826L1147.8 312.03C1153.13 310.101 1158.31 307.786 1163.33 305.009L1215.33 400.454ZM1163.8 301.536L1149.5 275.148C1154.06 272.448 1158.39 269.284 1162.25 265.658L1182.8 287.494C1176.93 292.972 1170.52 297.679 1163.8 301.536ZM1185.51 284.87C1184.81 285.565 1184.12 286.259 1183.42 286.876L1162.87 265.04C1169.51 258.713 1175 251.229 1178.94 242.819L1206.21 255.396C1201.19 266.198 1194.24 276.228 1185.51 284.87ZM1206.68 254.547L1179.4 241.97C1183.27 233.482 1185.58 224.146 1185.97 214.27L1215.95 215.273C1215.41 229.007 1212.24 242.279 1206.68 254.547Z" fill="#95A9A7"/>
<path d="M1370.16 279.701H1258.6V442.968H1370.16V279.701Z" fill="#95A9A7"/>
<path d="M1465.43 343.125H1353.86V441.965H1465.43V343.125Z" fill="#95A9A7"/>
<path d="M983.851 328.619H921.268V411.565H983.851V328.619Z" fill="#95A9A7"/>
<path d="M1393.27 124.457H1314.38V442.891H1393.27V124.457Z" fill="#95A9A7"/>
<path d="M1523.22 442.891H1419.15V256.939H1498.03L1523.22 442.891Z" fill="#95A9A7"/>
<path d="M1375.65 57.8691H1372.95V144.441H1375.65V57.8691Z" fill="#95A9A7"/>
<path d="M1384.77 76.4643H1382.06V163.036H1384.77V76.4643Z" fill="#95A9A7"/>
<path d="M1367.3 88.424H1364.6V174.996H1367.3V88.424Z" fill="#95A9A7"/>
<path d="M1460.48 241.893H1423.24V271.213H1460.48V241.893Z" fill="#95A9A7"/>
<path d="M1456.39 231.476H1427.34V247.911H1456.39V231.476Z" fill="#95A9A7"/>
<path d="M1365.14 170.135C1365.14 168.823 1364.21 167.743 1363.13 167.743C1362.05 167.743 1361.12 168.823 1361.12 170.135C1361.12 171.447 1362.05 172.527 1363.13 172.527C1364.21 172.527 1365.14 171.524 1365.14 170.135Z" fill="#44635E"/>
<path d="M1587.12 464.65L1574.52 380.238H1548.64V310.178H1551.81V303.851H1539.29V276.537H1537.75V303.851H1529.09V281.475H1527.55V303.851H1475.32V310.178H1478.87V452.305H1419.15V388.649H1385.15V232.171H1388.24V224.532H1381.52V214.656H1373.64V211.029V199.764V190.042H1364.21V172.604H1363.13H1361.97V190.042H1356.87L1353.86 199.764H1333.23V214.656H1279.38V224.532H1272.66V232.171H1275.75V334.02H1230.7V434.018L1180.72 411.874V314.808H1188.75V307.709H1174.53V288.342H1113.81V307.709H1093.95V288.342H1083.75V307.709H1073.55V288.342H1062.35V307.709H1038.86V314.808H1042.42V449.373H1019.62V447.984H1015.53V409.636H1019.62V406.55H1015.53V368.202H1019.62V365.115H1015.53V326.767H1019.62V323.681H1015.53V285.333H1019.62V282.247H1015.53V243.899H1019.62V240.813H1015.53V201.153H1022.56V198.067H1026.19V189.656H959.049V180.32H961.29V177.62H924.745V180.32H926.908V189.656H910.297V198.067H913.851V201.153H920.959V240.813H916.787V243.899H920.959V282.247H916.787V285.333H920.959V323.681H916.787V326.767H920.959V365.115H916.787V368.202H920.959V406.55H916.787V409.636H920.959V447.984H916.787V451.07H920.959V482.397H898.012V361.257H805.838V449.373H790.849V174.996H779.8V182.018L759.403 187.033V182.403H748.277V189.733L727.88 194.749V189.425H716.831V197.449L696.357 202.387V198.067H685.308V205.088L664.911 210.103V206.4H653.785V475.838H638.255V332.169H580.54V420.515H521.357V345.208H514.094V320.44H518.421V317.971H499.26V310.178H497.251V317.971H491.147V278.003H489.602V317.971H481.644V320.44H486.28V345.208H447.262V402.692H409.249L389.392 475.838H349.602V236.877H296.909V228.313H299.845V225.304H259.977V228.313H263.068V236.877V250.612V414.343H238.189V352.461H247.075V346.906H184.492V309.484H172.593V301.845H145.938V309.484H124.227V442.891H53.1454V343.974H-6.73311V422.136H-58.6536V472.135H-96.1259V409.25H-145.419V462.875H-190V554H-145.419H-130.353H-105.706H-96.1259H-58.6536H-6.73311H10.7282H20.077H53.1454H124.227H145.938H172.593H184.492H231.158H238.189H263.068H304.79H325.342H349.602H447.262H469.823H507.913H521.357H581.544H597.692H653.785H659.348H664.911H685.308H696.357H716.831H726.025H727.88H748.277H759.403H776.941H779.8H785.363H790.849H805.838H882.019H892.913H898.012H920.959H961.29H998.144H1015.53H1042.42H1109.25H1179.94H1180.72H1230.7H1258.6H1275.75H1286.57H1370.16H1385.15H1403.08H1419.15H1478.87H1523.22H1532.34H1548.64H1648V464.65H1587.12Z" fill="#44635E"/>
<g opacity="0.52">
<path opacity="0.52" d="M135.044 319.206H130.485V323.758H135.044V319.206Z" fill="white"/>
<path opacity="0.52" d="M144.238 319.206H139.68V323.758H144.238V319.206Z" fill="white"/>
<path opacity="0.52" d="M135.044 329.931H130.485V334.483H135.044V329.931Z" fill="white"/>
<path opacity="0.52" d="M144.238 329.931H139.68V334.483H144.238V329.931Z" fill="white"/>
<path opacity="0.52" d="M135.044 340.27H130.485V344.823H135.044V340.27Z" fill="white"/>
<path opacity="0.52" d="M154.36 319.206H149.801V323.758H154.36V319.206Z" fill="white"/>
</g>
<path opacity="0.5" d="M467.273 182.403H464.182V199.61H467.273V182.403Z" fill="white"/>
<path opacity="0.5" d="M478.013 182.403H474.922V199.61H478.013V182.403Z" fill="white"/>
<path opacity="0.5" d="M488.752 182.403H485.661V199.61H488.752V182.403Z" fill="white"/>
<path opacity="0.5" d="M499.414 182.403H496.324V199.61H499.414V182.403Z" fill="white"/>
<path opacity="0.5" d="M510.154 182.403H507.063V199.61H510.154V182.403Z" fill="white"/>
<path opacity="0.5" d="M520.893 182.403H517.803V199.61H520.893V182.403Z" fill="white"/>
<path opacity="0.5" d="M531.633 182.403H528.542V199.61H531.633V182.403Z" fill="white"/>
<path opacity="0.5" d="M542.295 182.403H539.204V199.61H542.295V182.403Z" fill="white"/>
<path opacity="0.5" d="M553.035 182.403H549.944V199.61H553.035V182.403Z" fill="white"/>
<path opacity="0.5" d="M563.774 182.403H560.683V199.61H563.774V182.403Z" fill="white"/>
<path opacity="0.5" d="M574.514 182.403H571.423V199.61H574.514V182.403Z" fill="white"/>
<path opacity="0.5" d="M467.273 206.4H464.182V223.606H467.273V206.4Z" fill="white"/>
<path opacity="0.5" d="M478.013 206.4H474.922V223.606H478.013V206.4Z" fill="white"/>
<path opacity="0.5" d="M488.752 206.4H485.661V223.606H488.752V206.4Z" fill="white"/>
<path opacity="0.5" d="M499.414 206.4H496.324V223.606H499.414V206.4Z" fill="white"/>
<path opacity="0.5" d="M510.154 206.4H507.063V223.606H510.154V206.4Z" fill="white"/>
<path opacity="0.5" d="M520.893 206.4H517.803V223.606H520.893V206.4Z" fill="white"/>
<path opacity="0.5" d="M531.633 206.4H528.542V223.606H531.633V206.4Z" fill="white"/>
<path opacity="0.5" d="M542.295 206.4H539.204V223.606H542.295V206.4Z" fill="white"/>
<path opacity="0.5" d="M553.035 206.4H549.944V223.606H553.035V206.4Z" fill="white"/>
<path opacity="0.5" d="M563.774 206.4H560.683V223.606H563.774V206.4Z" fill="white"/>
<path opacity="0.5" d="M574.514 206.4H571.423V223.606H574.514V206.4Z" fill="white"/>
<path opacity="0.5" d="M467.273 230.319H464.182V247.525H467.273V230.319Z" fill="white"/>
<path opacity="0.5" d="M478.013 230.319H474.922V247.525H478.013V230.319Z" fill="white"/>
<path opacity="0.5" d="M488.752 230.319H485.661V247.525H488.752V230.319Z" fill="white"/>
<path opacity="0.5" d="M499.414 230.319H496.324V247.525H499.414V230.319Z" fill="white"/>
<path opacity="0.5" d="M510.154 230.319H507.063V247.525H510.154V230.319Z" fill="white"/>
<path opacity="0.5" d="M520.893 230.319H517.803V247.525H520.893V230.319Z" fill="white"/>
<path opacity="0.5" d="M531.633 230.319H528.542V247.525H531.633V230.319Z" fill="white"/>
<path opacity="0.5" d="M542.295 230.319H539.204V247.525H542.295V230.319Z" fill="white"/>
<path opacity="0.5" d="M553.035 230.319H549.944V247.525H553.035V230.319Z" fill="white"/>
<path opacity="0.5" d="M563.774 230.319H560.683V247.525H563.774V230.319Z" fill="white"/>
<path opacity="0.5" d="M574.514 230.319H571.423V247.525H574.514V230.319Z" fill="white"/>
<path opacity="0.5" d="M499.414 254.238H496.324V271.445H499.414V254.238Z" fill="white"/>
<path opacity="0.5" d="M510.154 254.238H507.063V271.445H510.154V254.238Z" fill="white"/>
<path opacity="0.5" d="M520.893 254.238H517.803V271.445H520.893V254.238Z" fill="white"/>
<path opacity="0.5" d="M531.633 254.238H528.542V271.445H531.633V254.238Z" fill="white"/>
<path opacity="0.5" d="M542.295 254.238H539.204V271.445H542.295V254.238Z" fill="white"/>
<path opacity="0.5" d="M553.035 254.238H549.944V271.445H553.035V254.238Z" fill="white"/>
<path opacity="0.5" d="M563.774 254.238H560.683V271.445H563.774V254.238Z" fill="white"/>
<path opacity="0.5" d="M574.514 254.238H571.423V271.445H574.514V254.238Z" fill="white"/>
<path opacity="0.5" d="M510.154 279.469H507.063V296.676H510.154V279.469Z" fill="white"/>
<path opacity="0.5" d="M520.893 279.469H517.803V296.676H520.893V279.469Z" fill="white"/>
<path opacity="0.5" d="M531.633 279.469H528.542V296.676H531.633V279.469Z" fill="white"/>
<path opacity="0.5" d="M542.295 279.469H539.204V296.676H542.295V279.469Z" fill="white"/>
<path opacity="0.5" d="M553.035 279.469H549.944V296.676H553.035V279.469Z" fill="white"/>
<path opacity="0.5" d="M563.774 279.469H560.683V296.676H563.774V279.469Z" fill="white"/>
<path opacity="0.5" d="M574.514 279.469H571.423V296.676H574.514V279.469Z" fill="white"/>
<path opacity="0.33" d="M678.741 225.072H671.401V243.667H678.741V225.072Z" fill="white"/>
<path opacity="0.33" d="M678.741 260.72H671.401V279.315H678.741V260.72Z" fill="white"/>
<path opacity="0.33" d="M678.741 296.29H671.401V314.885H678.741V296.29Z" fill="white"/>
<path opacity="0.33" d="M678.741 331.86H671.401V350.455H678.741V331.86Z" fill="white"/>
<path opacity="0.33" d="M678.741 365.424H671.401V384.019H678.741V365.424Z" fill="white"/>
<path opacity="0.33" d="M678.741 401.071H671.401V419.667H678.741V401.071Z" fill="white"/>
<path opacity="0.33" d="M710.264 225.072H702.924V243.667H710.264V225.072Z" fill="white"/>
<path opacity="0.33" d="M710.264 260.72H702.924V279.315H710.264V260.72Z" fill="white"/>
<path opacity="0.33" d="M710.264 296.29H702.924V314.885H710.264V296.29Z" fill="white"/>
<path opacity="0.33" d="M710.264 331.86H702.924V350.455H710.264V331.86Z" fill="white"/>
<path opacity="0.33" d="M710.264 365.424H702.924V384.019H710.264V365.424Z" fill="white"/>
<path opacity="0.33" d="M710.264 401.071H702.924V419.667H710.264V401.071Z" fill="white"/>
<path opacity="0.33" d="M741.787 225.072H734.447V243.667H741.787V225.072Z" fill="white"/>
<path opacity="0.33" d="M741.787 260.72H734.447V279.315H741.787V260.72Z" fill="white"/>
<path opacity="0.33" d="M741.787 296.29H734.447V314.885H741.787V296.29Z" fill="white"/>
<path opacity="0.33" d="M741.787 331.86H734.447V350.455H741.787V331.86Z" fill="white"/>
<path opacity="0.33" d="M741.787 365.424H734.447V384.019H741.787V365.424Z" fill="white"/>
<path opacity="0.33" d="M741.787 401.071H734.447V419.667H741.787V401.071Z" fill="white"/>
<path opacity="0.33" d="M773.233 225.072H765.893V243.667H773.233V225.072Z" fill="white"/>
<path opacity="0.33" d="M773.233 260.72H765.893V279.315H773.233V260.72Z" fill="white"/>
<path opacity="0.33" d="M773.233 296.29H765.893V314.885H773.233V296.29Z" fill="white"/>
<path opacity="0.33" d="M773.233 331.86H765.893V350.455H773.233V331.86Z" fill="white"/>
<path opacity="0.33" d="M773.233 365.424H765.893V384.019H773.233V365.424Z" fill="white"/>
<path opacity="0.33" d="M773.233 401.071H765.893V419.667H773.233V401.071Z" fill="white"/>
<path opacity="0.5" d="M559.138 58.1777H553.035V74.4582H559.138V58.1777Z" fill="white"/>
<path opacity="0.5" d="M574.282 58.1777H568.178V74.4582H574.282V58.1777Z" fill="white"/>
<path opacity="0.5" d="M589.348 58.1777H583.244V74.4582H589.348V58.1777Z" fill="white"/>
<path opacity="0.5" d="M604.414 58.1777H598.31V74.4582H604.414V58.1777Z" fill="white"/>
<path opacity="0.5" d="M559.138 85.2604H553.035V101.541H559.138V85.2604Z" fill="white"/>
<path opacity="0.5" d="M574.282 85.2604H568.178V101.541H574.282V85.2604Z" fill="white"/>
<path opacity="0.5" d="M589.348 85.2604H583.244V101.541H589.348V85.2604Z" fill="white"/>
<path opacity="0.5" d="M604.414 85.2604H598.31V101.541H604.414V85.2604Z" fill="white"/>
<path opacity="0.5" d="M559.138 112.42H553.035V128.701H559.138V112.42Z" fill="white"/>
<path opacity="0.5" d="M574.282 112.42H568.178V128.701H574.282V112.42Z" fill="white"/>
<path opacity="0.5" d="M621.566 58.1777H615.463V74.4582H621.566V58.1777Z" fill="white"/>
<path opacity="0.4" d="M149.801 145.984H145.938V160.953H149.801V145.984Z" fill="white"/>
<path opacity="0.4" d="M163.554 145.984H159.691V160.953H163.554V145.984Z" fill="white"/>
<path opacity="0.4" d="M179.547 145.984H175.684V160.953H179.547V145.984Z" fill="white"/>
<path opacity="0.4" d="M193.3 145.984H189.437V160.953H193.3V145.984Z" fill="white"/>
<path opacity="0.4" d="M119.359 145.984H115.496V160.953H119.359V145.984Z" fill="white"/>
<path opacity="0.4" d="M133.035 145.984H129.172V160.953H133.035V145.984Z" fill="white"/>
<path opacity="0.4" d="M149.801 171.91H145.938V186.879H149.801V171.91Z" fill="white"/>
<path opacity="0.4" d="M163.554 171.91H159.691V186.879H163.554V171.91Z" fill="white"/>
<path opacity="0.4" d="M179.547 171.91H175.684V186.879H179.547V171.91Z" fill="white"/>
<path opacity="0.4" d="M193.3 171.91H189.437V186.879H193.3V171.91Z" fill="white"/>
<path opacity="0.4" d="M119.359 171.91H115.496V186.879H119.359V171.91Z" fill="white"/>
<path opacity="0.4" d="M133.035 171.91H129.172V186.879H133.035V171.91Z" fill="white"/>
<path opacity="0.4" d="M149.801 197.835H145.938V212.804H149.801V197.835Z" fill="white"/>
<path opacity="0.4" d="M163.554 197.835H159.691V212.804H163.554V197.835Z" fill="white"/>
<path opacity="0.4" d="M179.547 197.835H175.684V212.804H179.547V197.835Z" fill="white"/>
<path opacity="0.4" d="M193.3 197.835H189.437V212.804H193.3V197.835Z" fill="white"/>
<path opacity="0.4" d="M119.359 197.835H115.496V212.804H119.359V197.835Z" fill="white"/>
<path opacity="0.4" d="M133.035 197.835H129.172V212.804H133.035V197.835Z" fill="white"/>
<path opacity="0.5" d="M877.46 244.979H871.434V268.127H877.46V244.979Z" fill="white"/>
<path opacity="0.5" d="M895.926 244.979H889.899V268.127H895.926V244.979Z" fill="white"/>
<path opacity="0.5" d="M913.31 244.979H907.283V268.127H913.31V244.979Z" fill="white"/>
<path opacity="0.33" d="M1291.12 249.84H1286.57V262.88H1291.12V249.84Z" fill="white"/>
<path opacity="0.33" d="M1305.42 249.84H1300.86V262.88H1305.42V249.84Z" fill="white"/>
<path opacity="0.33" d="M1291.12 249.84H1286.57V262.88H1291.12V249.84Z" fill="white"/>
<path opacity="0.33" d="M1305.42 249.84H1300.86V262.88H1305.42V249.84Z" fill="white"/>
<path opacity="0.33" d="M1318.94 249.84H1314.38V262.88H1318.94V249.84Z" fill="white"/>
<path opacity="0.33" d="M1333.31 249.84H1328.75V262.88H1333.31V249.84Z" fill="white"/>
<path opacity="0.33" d="M1291.12 273.142H1286.57V286.182H1291.12V273.142Z" fill="white"/>
<path opacity="0.33" d="M1305.42 273.142H1300.86V286.182H1305.42V273.142Z" fill="white"/>
<path opacity="0.33" d="M1291.12 273.142H1286.57V286.182H1291.12V273.142Z" fill="white"/>
<path opacity="0.33" d="M1305.42 273.142H1300.86V286.182H1305.42V273.142Z" fill="white"/>
<path opacity="0.33" d="M1318.94 273.142H1314.38V286.182H1318.94V273.142Z" fill="white"/>
<path opacity="0.33" d="M1333.31 273.142H1328.75V286.182H1333.31V273.142Z" fill="white"/>
<path opacity="0.33" d="M1291.12 297.987H1286.57V311.027H1291.12V297.987Z" fill="white"/>
<path opacity="0.33" d="M1305.42 297.987H1300.86V311.027H1305.42V297.987Z" fill="white"/>
<path opacity="0.33" d="M1291.12 297.987H1286.57V311.027H1291.12V297.987Z" fill="white"/>
<path opacity="0.33" d="M1305.42 297.987H1300.86V311.027H1305.42V297.987Z" fill="white"/>
<path opacity="0.33" d="M1318.94 297.987H1314.38V311.027H1318.94V297.987Z" fill="white"/>
<path opacity="0.33" d="M1333.31 297.987H1328.75V311.027H1333.31V297.987Z" fill="white"/>
<path opacity="0.33" d="M1348.99 249.84H1344.44V262.88H1348.99V249.84Z" fill="white"/>
<path opacity="0.33" d="M1348.99 273.142H1344.44V286.182H1348.99V273.142Z" fill="white"/>
<path opacity="0.33" d="M1363.29 249.84H1358.73V262.88H1363.29V249.84Z" fill="white"/>
<path opacity="0.33" d="M934.403 211.184H929.458V231.476H934.403V211.184Z" fill="white"/>
<path opacity="0.33" d="M958.818 211.184H953.873V231.476H958.818V211.184Z" fill="white"/>
<path opacity="0.33" d="M983.233 211.184H978.288V231.476H983.233V211.184Z" fill="white"/>
<path opacity="0.33" d="M1007.72 211.184H1002.78V231.476H1007.72V211.184Z" fill="white"/>
<path opacity="0.33" d="M934.403 252.926H929.458V273.219H934.403V252.926Z" fill="white"/>
<path opacity="0.33" d="M958.818 252.926H953.873V273.219H958.818V252.926Z" fill="white"/>
<path opacity="0.33" d="M983.233 252.926H978.288V273.219H983.233V252.926Z" fill="white"/>
<path opacity="0.33" d="M1007.72 252.926H1002.78V273.219H1007.72V252.926Z" fill="white"/>
<path opacity="0.33" d="M934.403 295.75H929.458V316.042H934.403V295.75Z" fill="white"/>
<path opacity="0.33" d="M958.818 295.75H953.873V316.042H958.818V295.75Z" fill="white"/>
<path opacity="0.33" d="M983.233 295.75H978.288V316.042H983.233V295.75Z" fill="white"/>
<path opacity="0.33" d="M1007.72 295.75H1002.78V316.042H1007.72V295.75Z" fill="white"/>
<path opacity="0.33" d="M934.403 338.573H929.458V358.865H934.403V338.573Z" fill="white"/>
<path opacity="0.33" d="M958.818 338.573H953.873V358.865H958.818V338.573Z" fill="white"/>
<path opacity="0.33" d="M983.233 338.573H978.288V358.865H983.233V338.573Z" fill="white"/>
<path opacity="0.33" d="M1007.72 338.573H1002.78V358.865H1007.72V338.573Z" fill="white"/>
<path opacity="0.33" d="M934.403 377.461H929.458V397.754H934.403V377.461Z" fill="white"/>
<path opacity="0.33" d="M958.818 377.461H953.873V397.754H958.818V377.461Z" fill="white"/>
<path opacity="0.33" d="M983.233 377.461H978.288V397.754H983.233V377.461Z" fill="white"/>
<path opacity="0.33" d="M934.403 420.901H929.458V441.194H934.403V420.901Z" fill="white"/>
<path opacity="0.33" d="M958.818 420.901H953.873V441.194H958.818V420.901Z" fill="white"/>
<path opacity="0.33" d="M983.233 420.901H978.288V441.194H983.233V420.901Z" fill="white"/>
<path opacity="0.33" d="M1007.72 377.461H1002.78V397.754H1007.72V377.461Z" fill="white"/>
</g>
</svg>
