<svg width="317" height="48" viewBox="0 0 317 48" fill="none" xmlns="http://www.w3.org/2000/svg">
<path d="M0 47.7715L3.44999 34.9987C1.48894 31.4989 0.472104 27.566 0.472104 23.5971C0.472104 10.5718 11.1126 0 24.2226 0C37.3326 0 47.9731 10.5718 47.9731 23.5971C47.9731 36.6224 37.3326 47.1942 24.2226 47.1942C20.3005 47.1942 16.4147 46.22 12.9284 44.3438L0 47.7715ZM13.5821 39.545L14.381 40.014C17.3589 41.782 20.7726 42.7201 24.2226 42.7201C34.8268 42.7201 43.4699 34.1328 43.4699 23.5971C43.4699 13.0614 34.8268 4.47407 24.2226 4.47407C13.6184 4.47407 4.97525 13.0614 4.97525 23.5971C4.97525 27.097 5.95578 30.5247 7.80788 33.5194L8.3163 34.3493L6.39157 41.4934L13.5821 39.545Z" fill="#1B5CA9"/>
<path fill-rule="evenodd" clip-rule="evenodd" d="M33.0473 26.8809C32.0668 26.3036 30.7958 25.6541 29.6337 26.1232C28.7621 26.484 28.181 27.8551 27.6 28.5406C27.3095 28.9014 26.9463 28.9736 26.5105 28.7932C23.2058 27.4943 20.6637 25.2933 18.8116 22.2624C18.4847 21.7933 18.5574 21.4325 18.9205 20.9995C19.4653 20.3501 20.1553 19.6284 20.3005 18.7625C20.4458 17.8965 20.0463 16.8862 19.6831 16.0924C19.211 15.1182 18.7026 13.6749 17.6858 13.1337C16.7779 12.6286 15.5432 12.9172 14.7442 13.5667C13.3279 14.7213 12.6379 16.4893 12.6742 18.2934C12.6742 18.7986 12.7468 19.3037 12.8558 19.7728C13.1463 20.9274 13.6911 22.0459 14.3084 23.0923C14.7805 23.8861 15.2889 24.6438 15.8337 25.3654C17.6132 27.7468 19.8284 29.8396 22.3705 31.3911C23.6416 32.1849 25.0216 32.8344 26.4379 33.3034C28.0358 33.8447 29.4521 34.3859 31.1952 34.0611C33.011 33.7364 34.7905 32.6179 35.4805 30.8859C35.6984 30.3808 35.8073 29.8035 35.6621 29.2623C35.4805 28.0716 33.9552 27.4221 33.0473 26.8809Z" fill="#1B5CA9"/>
<path d="M83.6715 46.4736C96.2068 46.4736 106.369 36.3771 106.369 23.9224C106.369 11.4676 96.2068 1.37109 83.6715 1.37109C71.1361 1.37109 60.9741 11.4676 60.9741 23.9224C60.9741 36.3771 71.1361 46.4736 83.6715 46.4736Z" fill="#1B5CA9"/>
<path d="M135.712 46.4736C148.247 46.4736 158.409 36.3771 158.409 23.9224C158.409 11.4676 148.247 1.37109 135.712 1.37109C123.177 1.37109 113.015 11.4676 113.015 23.9224C113.015 36.3771 123.177 46.4736 135.712 46.4736Z" fill="#1B5CA9"/>
<path d="M188.987 46.4736C201.523 46.4736 211.684 36.3771 211.684 23.9224C211.684 11.4676 201.523 1.37109 188.987 1.37109C176.452 1.37109 166.29 11.4676 166.29 23.9224C166.29 36.3771 176.452 46.4736 188.987 46.4736Z" fill="#1B5CA9"/>
<path d="M241.645 46.4736C254.18 46.4736 264.342 36.3771 264.342 23.9224C264.342 11.4676 254.18 1.37109 241.645 1.37109C229.109 1.37109 218.948 11.4676 218.948 23.9224C218.948 36.3771 229.109 46.4736 241.645 46.4736Z" fill="#1B5CA9"/>
<path d="M294.303 46.4736C306.838 46.4736 317 36.3771 317 23.9224C317 11.4676 306.838 1.37109 294.303 1.37109C281.767 1.37109 271.605 11.4676 271.605 23.9224C271.605 36.3771 281.767 46.4736 294.303 46.4736Z" fill="#1B5CA9"/>
<path d="M93.2588 21.216V26.6283L87.7025 26.087L91.1162 30.3086L86.613 33.123L83.9983 27.8911L81.3836 33.123L76.8804 30.3086L80.2941 26.087L74.7378 26.6283V21.216L80.2941 21.7572L76.8804 17.5356L81.3836 14.7212L83.9983 19.9531L86.613 14.7212L91.1162 17.5356L87.7025 21.7572L93.2588 21.216Z" fill="white"/>
<path d="M146.098 27.4569V33.2299H143.338V37.5957H136.947V33.2299H124.418V27.4569L133.206 10.2461H139.961L131.172 27.4569H136.91V21.5756H143.302V27.4569H146.098Z" fill="white"/>
<path d="M188.769 18.6181C191.457 18.7985 193.636 19.7727 195.379 21.5768C197.086 23.3448 197.921 25.5819 197.921 28.2158C197.921 31.0663 196.977 33.3755 195.052 35.1796C193.163 36.9837 190.694 37.8857 187.68 37.8857C184.629 37.8857 182.16 36.9837 180.271 35.1796C178.383 33.3755 177.439 31.0663 177.439 28.2158C177.439 26.1231 177.983 24.2829 179.037 22.6593L187.462 9.9585H194.689L188.769 18.6181ZM184.92 30.9941C185.319 31.3189 185.755 31.5714 186.227 31.7519C186.699 31.9323 187.208 32.0044 187.716 32.0044C188.225 32.0044 188.697 31.9323 189.205 31.7519C189.677 31.5714 190.113 31.3189 190.512 30.9941C191.275 30.3086 191.638 29.3705 191.638 28.2158C191.638 27.0612 191.275 26.1592 190.512 25.4736C190.113 25.1489 189.677 24.8602 189.205 24.6798C188.733 24.4994 188.225 24.3912 187.716 24.3912C187.208 24.3912 186.736 24.4633 186.227 24.6438C185.755 24.8242 185.319 25.0767 184.92 25.4015C184.157 26.087 183.794 26.9891 183.794 28.1798C183.758 29.4065 184.157 30.3447 184.92 30.9941Z" fill="white"/>
<path d="M242.407 18.6181C245.095 18.7985 247.274 19.7727 249.017 21.5768C250.724 23.3448 251.559 25.5819 251.559 28.2158C251.559 31.0663 250.615 33.3755 248.69 35.1796C246.802 36.9837 244.332 37.8857 241.318 37.8857C238.267 37.8857 235.798 36.9837 233.91 35.1796C232.021 33.3755 231.077 31.0663 231.077 28.2158C231.077 26.1231 231.622 24.2829 232.675 22.6593L241.1 9.9585H248.4L242.407 18.6181ZM238.558 30.9941C238.957 31.3189 239.393 31.5714 239.865 31.7519C240.337 31.9323 240.846 32.0044 241.354 32.0044C241.863 32.0044 242.335 31.9323 242.843 31.7519C243.315 31.5714 243.751 31.3189 244.151 30.9941C244.913 30.3086 245.276 29.3705 245.276 28.2158C245.276 27.0612 244.913 26.1592 244.151 25.4736C243.751 25.1489 243.315 24.8602 242.843 24.6798C242.371 24.4994 241.863 24.3912 241.354 24.3912C240.846 24.3912 240.374 24.4633 239.865 24.6438C239.393 24.8242 238.957 25.0767 238.558 25.4015C237.795 26.087 237.432 26.9891 237.432 28.1798C237.432 29.4065 237.795 30.3447 238.558 30.9941Z" fill="white"/>
<path d="M298.515 21.0714C300.258 21.6848 301.675 22.659 302.764 23.9941C303.854 25.3291 304.362 26.9167 304.362 28.7569C304.362 31.6074 303.382 33.8806 301.457 35.4682C299.532 37.0919 297.135 37.8857 294.339 37.8857C292.124 37.8857 290.199 37.3806 288.492 36.4064C286.785 35.4321 285.514 33.9528 284.715 32.0043L290.163 28.8652C290.853 30.7775 292.233 31.7518 294.375 31.7518C295.174 31.7878 295.864 31.6796 296.445 31.3909C297.026 31.1023 297.426 30.7054 297.68 30.2363C297.934 29.7672 298.08 29.2621 298.08 28.7208C298.08 28.1796 297.971 27.6745 297.68 27.2054C297.39 26.7363 296.99 26.3394 296.409 26.0508C295.828 25.7621 295.138 25.6178 294.339 25.6899H293.032L290.635 22.1178L295.646 15.8395H285.587V9.99414H303.309V15.0817L298.515 21.0714Z" fill="white"/>
</svg>
