<svg width="254" height="110" viewBox="0 0 254 110" fill="none" xmlns="http://www.w3.org/2000/svg">
<path d="M30.3 29.52L26.52 24.2H24.84V34H27.08V28.68L30.86 34H32.54V24.2H30.3V29.52Z" fill="white"/>
<path d="M37.6489 23.5H39.5389L38.1529 21.54H36.2349L34.8489 23.5H36.7389L37.2009 22.772L37.6489 23.5ZM36.4589 30.108H39.9589V27.98H36.4589V26.356H40.3089V24.2H34.2189V34H40.3789V31.844H36.4589V30.108ZM40.8689 22.086L39.8329 20.266H37.4809L38.9929 22.086H40.8689Z" fill="white"/>
<path d="M47.1027 29.52L43.3227 24.2H41.6427V34H43.8827V28.68L47.6627 34H49.3427V24.2H47.1027V29.52Z" fill="white"/>
<path d="M53.8216 24.2V26.356H56.3416V34H58.5816V26.356H61.1016V24.2H53.8216Z" fill="white"/>
<path d="M66.0749 23.5C66.0329 23.164 66.1589 23.08 66.3409 22.996C66.6769 22.842 66.9709 22.492 66.9709 21.932C66.9709 21.176 66.3409 20.742 65.3469 20.742C64.4229 20.742 63.8629 21.05 63.4849 21.792L64.7449 22.254C64.8849 21.96 65.1089 21.876 65.3189 21.876C65.4309 21.876 65.5289 21.946 65.5289 22.016C65.5289 22.1 65.4729 22.128 65.4169 22.184C65.4309 22.17 65.2209 22.282 65.2209 22.282C64.8149 22.464 64.6049 22.632 64.6049 23.5H66.0749ZM70.0649 34L66.7329 24.2H63.8769L60.5449 34H62.9949L63.4849 32.46H67.1249L67.6149 34H70.0649ZM65.3049 26.762L66.4529 30.36H64.1569L65.3049 26.762Z" fill="white"/>
<path d="M76.3605 29.52L72.5805 24.2H70.9005V34H73.1405V28.68L76.9205 34H78.6005V24.2H76.3605V29.52Z" fill="white"/>
<path d="M85.0674 28.54V30.5H87.6854C87.3074 31.508 86.4814 32.012 85.1794 32.012C84.2414 32.012 83.4994 31.746 82.9394 31.214C82.3794 30.668 82.0994 29.982 82.0994 29.128C82.0994 28.274 82.3654 27.56 82.9114 27.014C83.4574 26.468 84.1574 26.188 84.9834 26.188C86.0474 26.188 86.9434 26.664 87.3774 27.336L89.2814 26.244C88.4414 24.9 86.8314 24.004 84.9974 24.004C83.5554 24.004 82.3374 24.494 81.3434 25.488C80.3494 26.482 79.8594 27.686 79.8594 29.114C79.8594 30.542 80.3634 31.746 81.3574 32.726C82.3654 33.706 83.6254 34.196 85.1514 34.196C86.5514 34.196 87.6994 33.762 88.6094 32.894C89.5194 32.012 89.9814 30.85 89.9814 29.38V28.54H85.0674Z" fill="white"/>
<path d="M100.82 28.918C101.394 28.428 101.674 27.784 101.674 27C101.674 26.174 101.38 25.502 100.778 24.984C100.19 24.466 99.4623 24.2 98.5803 24.2H94.7443V34H98.8603C99.7563 34 100.512 33.734 101.114 33.202C101.716 32.67 102.024 31.984 102.024 31.13C102.024 30.164 101.618 29.436 100.82 28.918ZM98.5803 26.3C99.0843 26.3 99.4343 26.664 99.4343 27.168C99.4343 27.672 99.0843 28.036 98.5803 28.036H96.9843V26.3H98.5803ZM96.9843 31.9V30.024H98.8603C99.4203 30.024 99.7843 30.402 99.7843 30.962C99.7843 31.522 99.4203 31.9 98.8603 31.9H96.9843Z" fill="white"/>
<path d="M111.819 34L108.487 24.2H105.631L102.299 34H104.749L105.239 32.46H108.879L109.369 34H111.819ZM107.059 26.762L108.207 30.36H105.911L107.059 26.762ZM107.437 23.5H109.327L107.941 21.54H106.023L104.637 23.5H106.527L106.989 22.772L107.437 23.5ZM108.627 22.086H110.503L112.015 20.266H109.677L108.627 22.086Z" fill="white"/>
<path d="M111.257 24.2V26.356H113.777V34H116.017V26.356H118.537V24.2H111.257Z" fill="white"/>
<path d="M123.578 24.2V28.316H122.794V30.108H123.578V34H127.498C128.856 34 129.976 33.538 130.886 32.6C131.796 31.662 132.258 30.486 132.258 29.1C132.258 27.714 131.796 26.552 130.886 25.614C129.976 24.676 128.856 24.2 127.498 24.2H123.578ZM125.818 31.844V30.108H127.61V28.316H125.818V26.356H127.498C128.268 26.356 128.898 26.608 129.374 27.112C129.864 27.602 130.102 28.274 130.102 29.1C130.102 29.926 129.864 30.598 129.374 31.102C128.898 31.592 128.268 31.844 127.498 31.844H125.818Z" fill="white"/>
<path d="M138.656 23.36H140.546L139.16 21.4H137.242L135.856 23.36H137.746L138.208 22.632L138.656 23.36ZM134.582 25.474C133.588 26.454 133.098 27.658 133.098 29.1C133.098 30.542 133.588 31.746 134.582 32.726C135.576 33.706 136.78 34.196 138.194 34.196C139.608 34.196 140.812 33.706 141.806 32.726C142.8 31.746 143.29 30.542 143.29 29.1C143.29 27.658 142.8 26.454 141.806 25.474C140.812 24.494 139.608 24.004 138.194 24.004C136.78 24.004 135.576 24.494 134.582 25.474ZM136.15 31.2C135.604 30.654 135.338 29.954 135.338 29.1C135.338 28.246 135.604 27.546 136.15 27C136.696 26.454 137.382 26.188 138.194 26.188C139.006 26.188 139.678 26.454 140.224 27C140.77 27.546 141.05 28.246 141.05 29.1C141.05 29.954 140.77 30.654 140.224 31.2C139.678 31.746 139.006 32.012 138.194 32.012C137.382 32.012 136.696 31.746 136.15 31.2ZM139.048 37.024C139.538 36.534 139.538 35.792 139.048 35.316C138.558 34.84 137.802 34.84 137.298 35.316C136.822 35.792 136.822 36.534 137.298 37.024C137.802 37.486 138.558 37.486 139.048 37.024Z" fill="white"/>
<path d="M150.011 29.52L146.231 24.2H144.551V34H146.791V28.68L150.571 34H152.251V24.2H150.011V29.52Z" fill="white"/>
<path d="M158.718 28.54V30.5H161.336C160.958 31.508 160.132 32.012 158.83 32.012C157.892 32.012 157.15 31.746 156.59 31.214C156.03 30.668 155.75 29.982 155.75 29.128C155.75 28.274 156.016 27.56 156.562 27.014C157.108 26.468 157.808 26.188 158.634 26.188C159.698 26.188 160.594 26.664 161.028 27.336L162.932 26.244C162.092 24.9 160.482 24.004 158.648 24.004C157.206 24.004 155.988 24.494 154.994 25.488C154 26.482 153.51 27.686 153.51 29.114C153.51 30.542 154.014 31.746 155.008 32.726C156.016 33.706 157.276 34.196 158.802 34.196C160.202 34.196 161.35 33.762 162.26 32.894C163.17 32.012 163.632 30.85 163.632 29.38V28.54H158.718Z" fill="white"/>
<path d="M171.825 34.196C172.903 34.196 173.785 33.93 174.457 33.398C175.129 32.852 175.465 32.124 175.465 31.186C175.465 30.388 175.143 29.744 174.793 29.366C174.625 29.17 174.373 28.988 174.037 28.82C173.715 28.638 173.435 28.512 173.225 28.442L172.315 28.148C171.601 27.938 171.125 27.742 170.887 27.56C170.663 27.378 170.551 27.168 170.551 26.93C170.551 26.524 170.929 26.188 171.601 26.188C172.455 26.188 172.945 26.58 173.295 27.322L175.185 26.216C174.471 24.774 173.211 24.004 171.601 24.004C170.705 24.004 169.935 24.27 169.277 24.816C168.633 25.362 168.311 26.076 168.311 26.986C168.311 27.882 168.633 28.582 169.207 29.044C169.809 29.492 170.369 29.744 171.195 29.968C171.979 30.178 172.511 30.374 172.791 30.542C173.085 30.696 173.225 30.92 173.225 31.214C173.225 31.746 172.777 32.012 171.895 32.012C170.915 32.012 170.229 31.564 169.837 30.654L167.905 31.774C168.465 33.272 169.823 34.196 171.825 34.196Z" fill="white"/>
<path d="M181.274 23.5C181.232 23.164 181.358 23.08 181.54 22.996C181.876 22.842 182.17 22.492 182.17 21.932C182.17 21.176 181.54 20.742 180.546 20.742C179.622 20.742 179.062 21.05 178.684 21.792L179.944 22.254C180.084 21.96 180.308 21.876 180.518 21.876C180.63 21.876 180.728 21.946 180.728 22.016C180.728 22.1 180.672 22.128 180.616 22.184C180.63 22.17 180.42 22.282 180.42 22.282C180.014 22.464 179.804 22.632 179.804 23.5H181.274ZM185.264 34L181.932 24.2H179.076L175.744 34H178.194L178.684 32.46H182.324L182.814 34H185.264ZM180.504 26.762L181.652 30.36H179.356L180.504 26.762Z" fill="white"/>
<path d="M191.56 29.52L187.78 24.2H186.1V34H188.34V28.68L192.12 34H193.8V24.2H191.56V29.52Z" fill="white"/>
<path d="M198.279 24.2V26.356H200.799V34H203.039V26.356H205.559V24.2H198.279Z" fill="white"/>
<path d="M211.859 27.952H208.779V24.2H206.539V34H208.779V30.108H211.859V34H214.099V24.2H211.859V27.952Z" fill="white"/>
<path d="M224.461 34L221.129 24.2H218.273L214.941 34H217.391L217.881 32.46H221.521L222.011 34H224.461ZM219.701 26.762L220.849 30.36H218.553L219.701 26.762ZM220.079 23.5H221.969L220.583 21.54H218.665L217.279 23.5H219.169L219.631 22.772L220.079 23.5ZM220.555 37.024C221.045 36.534 221.045 35.792 220.555 35.316C220.065 34.84 219.309 34.84 218.805 35.316C218.329 35.792 218.329 36.534 218.805 37.024C219.309 37.486 220.065 37.486 220.555 37.024Z" fill="white"/>
<path d="M223.9 24.2V26.356H226.42V34H228.66V26.356H231.18V24.2H223.9Z" fill="white"/>
<path d="M109.31 41C108.025 41.1307 106.74 41.1829 105.454 41.392C92.9934 43.6657 84.7037 56.7854 89.6617 69.1733C93.964 79.9147 101.047 88.8528 108.471 97.5557C109.022 98.2091 109.52 98.0784 110.019 97.4773C110.57 96.7978 111.147 96.1444 111.698 95.4649C117.548 88.2517 123.162 80.8294 127.28 72.4402C129.353 68.2325 130.848 63.8941 130.14 59.033C128.592 48.762 119.804 41.1045 109.31 41ZM109.232 77.2228C99.4467 77.1967 92.9934 69.1472 93.177 61.0715C93.177 52.2902 100.47 45.077 109.337 45.1554C117.941 45.2077 125.391 51.9766 125.365 61.2545C125.339 70.3232 118.125 77.249 109.232 77.2228Z" fill="white"/>
<path d="M82.5788 72.4924C81.2934 69.3824 80.349 66.0371 76.9387 64.1554C77.3584 63.9202 77.5945 63.7634 77.8306 63.6588C81.2147 62.0646 83.3658 59.5295 83.8118 55.7923C84.3364 51.3494 83.1559 46.7496 78.3028 44.8941C76.4665 44.1884 74.4465 43.6919 72.5053 43.5873C68.203 43.3521 63.9008 43.4305 59.5985 43.4305C57.5261 43.4305 57.2113 43.7703 57.2113 45.8349C57.1851 57.5694 57.1851 69.304 57.1851 81.0124C57.1851 84.9848 57.5261 85.2985 61.566 84.8803C61.6447 84.8803 61.7234 84.8542 61.8021 84.8542C62.8252 84.7496 63.3761 84.2531 63.3499 83.1554C63.3236 81.3782 63.3499 79.5749 63.3499 77.7978V67.3439C65.1075 67.3439 66.6815 67.3439 68.2555 67.3439C72.5053 67.3439 74.394 68.5983 75.9943 72.5447C77.201 75.4979 78.3553 78.4773 79.5358 81.4566C80.9786 85.0632 81.2409 85.2201 85.1497 84.9326C85.2284 84.9326 85.3071 84.9064 85.412 84.9064C87.1434 84.7496 87.3795 84.436 86.7237 82.7895C85.3858 79.3397 83.9954 75.8899 82.5788 72.4924ZM72.6889 61.5681C69.8557 62.0646 66.8913 61.8555 63.9795 61.8817C63.7696 61.8817 63.4023 61.3328 63.4023 61.0192C63.3761 57.282 63.4023 53.5447 63.3761 49.8074C63.3761 49.1018 63.6647 48.8404 64.3467 48.8666C65.5272 48.8927 66.6815 48.8666 67.862 48.8666C67.862 48.8404 67.862 48.8143 67.862 48.762C69.3048 48.8666 70.8001 48.8404 72.2167 49.0756C75.5483 49.6506 77.3846 51.6107 77.542 54.5639C77.7257 57.8308 75.7844 61.0192 72.6889 61.5681Z" fill="white"/>
<path d="M188.141 59.9738C190.974 56.1059 193.808 52.2379 196.615 48.37C197.611 47.011 196.746 45.7826 196.3 44.502C195.906 43.4044 195.014 43.6396 194.201 43.6396C186.174 43.6396 178.173 43.6134 170.145 43.6134C167.496 43.6134 166.997 43.0907 167.076 46.7235C167.102 48.6052 167.312 48.8404 169.148 48.8404C174.998 48.8404 180.848 48.8404 186.698 48.8665C187.171 48.8665 187.669 48.9188 188.404 48.9449C188.036 49.4938 187.826 49.8335 187.59 50.1471C183.104 56.2888 178.592 62.4566 174.106 68.5983C171.273 72.4663 168.493 76.3603 165.633 80.176C164.558 81.6134 165.371 82.8418 165.817 84.1485C166.21 85.2723 167.207 85.011 168.047 85.011C176.861 85.0371 185.675 85.0371 194.49 85.0371C196.641 85.0371 196.929 84.7757 196.982 82.6066C196.982 82.2668 196.982 81.9271 196.929 81.6134C196.719 80.0192 196.483 79.8101 194.883 79.8101C188.404 79.8101 181.924 79.8101 175.471 79.784C174.998 79.784 174.526 79.7317 173.792 79.7056C174.185 79.1306 174.421 78.7647 174.684 78.3989C179.169 72.2833 183.655 66.1155 188.141 59.9738Z" fill="white"/>
<path d="M46.1146 45.1293C43.9635 44.1362 41.7337 43.4828 39.3727 43.4567C35.1229 43.4044 30.8469 43.3783 26.5971 43.3783C24.341 43.3783 24.0787 43.6919 24.0525 45.8872C24.0525 46.2531 24.0525 46.6451 24.0525 47.011L24 80.8295C24 84.9326 24.5247 85.3508 28.6433 84.802C29.7451 84.6451 30.2435 84.0963 30.2173 82.9725C30.191 80.5681 30.2173 78.1376 30.2173 75.7332V67.7882C33.0242 67.7882 35.6738 67.9189 38.2709 67.7621C40.2384 67.6314 42.2845 67.3962 44.1471 66.7689C47.8198 65.5406 50.3119 62.9794 51.2038 59.1376C51.781 56.6025 51.7023 54.0413 51.1514 51.4801C50.548 48.553 48.9216 46.4099 46.1146 45.1293ZM45.0915 56.9161C44.6455 60.3136 42.678 62.2215 39.2153 62.4567C36.2771 62.6396 33.3128 62.4828 30.296 62.4828L30.3222 49.1018C30.4009 49.0234 30.4796 48.9189 30.5321 48.9189C33.5751 48.945 36.6444 48.7359 39.6612 49.1018C44.1733 49.6506 45.6162 52.6562 45.0915 56.9161Z" fill="white"/>
<path d="M157.789 45.8611C155.323 44.4237 152.674 43.6135 149.841 43.5874C145.67 43.5351 141.499 43.509 137.327 43.509C134.862 43.509 134.52 43.8487 134.52 46.3315C134.52 57.9615 134.494 69.6176 134.494 81.2476C134.494 84.9588 134.888 85.2985 138.692 84.9849C140.449 84.8281 140.712 84.5929 140.712 82.868C140.712 78.4512 140.712 74.0606 140.738 69.6438C140.738 69.1211 140.816 68.5984 140.869 67.945C143.65 67.945 146.325 68.0757 148.975 67.9189C150.916 67.8143 152.91 67.5791 154.72 66.9519C158.708 65.5667 161.357 62.7703 161.908 58.5103C162.17 56.6025 162.118 54.6163 161.908 52.6823C161.567 49.8075 160.413 47.3769 157.789 45.8611ZM155.638 56.4196C155.297 60.6011 153.015 62.5351 148.739 62.6919C147.611 62.7442 146.483 62.6919 145.355 62.6919C144.174 62.6919 143.02 62.6658 141.84 62.6919C141.079 62.718 140.685 62.4828 140.685 61.6465C140.712 57.7002 140.712 53.7538 140.712 49.8075C140.712 49.2325 140.738 48.6837 141.551 48.7098C144.384 48.7882 147.244 48.6053 150.024 48.945C154.405 49.52 156.006 52.0289 155.638 56.4196Z" fill="white"/>
<path d="M231.085 43.6919C230.298 43.5874 229.511 43.6658 228.698 43.6658C227.622 43.6658 226.835 44.1101 226.232 45.0509C223.845 48.7621 221.405 52.4471 218.991 56.1321C218.493 56.89 217.995 57.6479 217.339 58.5888C216.919 57.9615 216.63 57.5434 216.342 57.1252C214.165 53.7277 211.987 50.3302 209.784 46.9326C207.475 43.3783 207.475 43.3522 203.147 43.6397C202.569 43.6658 201.756 43.8749 201.52 44.2669C201.31 44.6328 201.651 45.443 201.94 45.9134C205.691 51.663 209.521 57.3604 213.273 63.1101C213.745 63.8157 214.033 64.7827 214.033 65.6452C214.086 70.7676 214.033 75.8639 214.06 80.9863C214.086 84.5929 213.246 85.0633 218.126 84.9588C219.831 84.9065 220.277 84.4622 220.277 82.7896C220.277 77.0138 220.277 71.238 220.329 65.4361C220.329 64.7827 220.565 64.0248 220.906 63.476C222.612 60.758 224.422 58.1183 226.179 55.4526C228.252 52.3164 230.324 49.2064 232.37 46.0702C232.711 45.5475 233.131 44.5805 232.921 44.3453C232.554 43.9533 231.741 43.7703 231.085 43.6919Z" fill="white"/>
</svg>
