<svg width="209" height="78" viewBox="0 0 209 78" fill="none" xmlns="http://www.w3.org/2000/svg">
<path d="M6.3 9.52L2.52 4.2H0.84V14H3.08V8.68L6.86 14H8.54V4.2H6.3V9.52ZM13.6489 3.5H15.5389L14.1529 1.54H12.2349L10.8489 3.5H12.7389L13.2009 2.772L13.6489 3.5ZM12.4589 10.108H15.9589V7.98H12.4589V6.356H16.3089V4.2H10.2189V14H16.3789V11.844H12.4589V10.108ZM16.8689 2.086L15.8329 0.265999H13.4809L14.9929 2.086H16.8689ZM23.1027 9.52L19.3227 4.2H17.6427V14H19.8827V8.68L23.6627 14H25.3427V4.2H23.1027V9.52ZM29.8216 4.2V6.356H32.3416V14H34.5816V6.356H37.1016V4.2H29.8216ZM42.0749 3.5C42.0329 3.164 42.1589 3.08 42.3409 2.996C42.6769 2.842 42.9709 2.492 42.9709 1.932C42.9709 1.176 42.3409 0.742 41.3469 0.742C40.4229 0.742 39.8629 1.05 39.4849 1.792L40.7449 2.254C40.8849 1.96 41.1089 1.876 41.3189 1.876C41.4309 1.876 41.5289 1.946 41.5289 2.016C41.5289 2.1 41.4729 2.128 41.4169 2.184C41.4309 2.17 41.2209 2.282 41.2209 2.282C40.8149 2.464 40.6049 2.632 40.6049 3.5H42.0749ZM46.0649 14L42.7329 4.2H39.8769L36.5449 14H38.9949L39.4849 12.46H43.1249L43.6149 14H46.0649ZM41.3049 6.762L42.4529 10.36H40.1569L41.3049 6.762ZM52.3605 9.52L48.5805 4.2H46.9005V14H49.1405V8.68L52.9205 14H54.6005V4.2H52.3605V9.52ZM61.0675 8.54V10.5H63.6855C63.3075 11.508 62.4815 12.012 61.1795 12.012C60.2415 12.012 59.4995 11.746 58.9395 11.214C58.3795 10.668 58.0995 9.982 58.0995 9.128C58.0995 8.274 58.3655 7.56 58.9115 7.014C59.4575 6.468 60.1575 6.188 60.9835 6.188C62.0475 6.188 62.9435 6.664 63.3775 7.336L65.2815 6.244C64.4415 4.9 62.8315 4.004 60.9975 4.004C59.5555 4.004 58.3375 4.494 57.3435 5.488C56.3495 6.482 55.8595 7.686 55.8595 9.114C55.8595 10.542 56.3635 11.746 57.3575 12.726C58.3655 13.706 59.6255 14.196 61.1515 14.196C62.5515 14.196 63.6995 13.762 64.6095 12.894C65.5195 12.012 65.9815 10.85 65.9815 9.38V8.54H61.0675ZM76.8203 8.918C77.3943 8.428 77.6743 7.784 77.6743 7C77.6743 6.174 77.3803 5.502 76.7783 4.984C76.1903 4.466 75.4623 4.2 74.5803 4.2H70.7443V14H74.8603C75.7563 14 76.5123 13.734 77.1143 13.202C77.7163 12.67 78.0243 11.984 78.0243 11.13C78.0243 10.164 77.6183 9.436 76.8203 8.918ZM74.5803 6.3C75.0843 6.3 75.4343 6.664 75.4343 7.168C75.4343 7.672 75.0843 8.036 74.5803 8.036H72.9843V6.3H74.5803ZM72.9843 11.9V10.024H74.8603C75.4203 10.024 75.7843 10.402 75.7843 10.962C75.7843 11.522 75.4203 11.9 74.8603 11.9H72.9843ZM87.8188 14L84.4868 4.2H81.6308L78.2988 14H80.7488L81.2388 12.46H84.8788L85.3688 14H87.8188ZM83.0588 6.762L84.2068 10.36H81.9108L83.0588 6.762ZM83.4368 3.5H85.3268L83.9408 1.54H82.0228L80.6368 3.5H82.5268L82.9888 2.772L83.4368 3.5ZM84.6268 2.086H86.5028L88.0148 0.265999H85.6768L84.6268 2.086ZM87.2572 4.2V6.356H89.7772V14H92.0172V6.356H94.5372V4.2H87.2572ZM99.5777 4.2V8.316H98.7937V10.108H99.5777V14H103.498C104.856 14 105.976 13.538 106.886 12.6C107.796 11.662 108.258 10.486 108.258 9.1C108.258 7.714 107.796 6.552 106.886 5.614C105.976 4.676 104.856 4.2 103.498 4.2H99.5777ZM101.818 11.844V10.108H103.61V8.316H101.818V6.356H103.498C104.268 6.356 104.898 6.608 105.374 7.112C105.864 7.602 106.102 8.274 106.102 9.1C106.102 9.926 105.864 10.598 105.374 11.102C104.898 11.592 104.268 11.844 103.498 11.844H101.818ZM114.656 3.36H116.546L115.16 1.4H113.242L111.856 3.36H113.746L114.208 2.632L114.656 3.36ZM110.582 5.474C109.588 6.454 109.098 7.658 109.098 9.1C109.098 10.542 109.588 11.746 110.582 12.726C111.576 13.706 112.78 14.196 114.194 14.196C115.608 14.196 116.812 13.706 117.806 12.726C118.8 11.746 119.29 10.542 119.29 9.1C119.29 7.658 118.8 6.454 117.806 5.474C116.812 4.494 115.608 4.004 114.194 4.004C112.78 4.004 111.576 4.494 110.582 5.474ZM112.15 11.2C111.604 10.654 111.338 9.954 111.338 9.1C111.338 8.246 111.604 7.546 112.15 7C112.696 6.454 113.382 6.188 114.194 6.188C115.006 6.188 115.678 6.454 116.224 7C116.77 7.546 117.05 8.246 117.05 9.1C117.05 9.954 116.77 10.654 116.224 11.2C115.678 11.746 115.006 12.012 114.194 12.012C113.382 12.012 112.696 11.746 112.15 11.2ZM115.048 17.024C115.538 16.534 115.538 15.792 115.048 15.316C114.558 14.84 113.802 14.84 113.298 15.316C112.822 15.792 112.822 16.534 113.298 17.024C113.802 17.486 114.558 17.486 115.048 17.024ZM126.011 9.52L122.231 4.2H120.551V14H122.791V8.68L126.571 14H128.251V4.2H126.011V9.52ZM134.718 8.54V10.5H137.336C136.958 11.508 136.132 12.012 134.83 12.012C133.892 12.012 133.15 11.746 132.59 11.214C132.03 10.668 131.75 9.982 131.75 9.128C131.75 8.274 132.016 7.56 132.562 7.014C133.108 6.468 133.808 6.188 134.634 6.188C135.698 6.188 136.594 6.664 137.028 7.336L138.932 6.244C138.092 4.9 136.482 4.004 134.648 4.004C133.206 4.004 131.988 4.494 130.994 5.488C130 6.482 129.51 7.686 129.51 9.114C129.51 10.542 130.014 11.746 131.008 12.726C132.016 13.706 133.276 14.196 134.802 14.196C136.202 14.196 137.35 13.762 138.26 12.894C139.17 12.012 139.632 10.85 139.632 9.38V8.54H134.718ZM147.825 14.196C148.903 14.196 149.785 13.93 150.457 13.398C151.129 12.852 151.465 12.124 151.465 11.186C151.465 10.388 151.143 9.744 150.793 9.366C150.625 9.17 150.373 8.988 150.037 8.82C149.715 8.638 149.435 8.512 149.225 8.442L148.315 8.148C147.601 7.938 147.125 7.742 146.887 7.56C146.663 7.378 146.551 7.168 146.551 6.93C146.551 6.524 146.929 6.188 147.601 6.188C148.455 6.188 148.945 6.58 149.295 7.322L151.185 6.216C150.471 4.774 149.211 4.004 147.601 4.004C146.705 4.004 145.935 4.27 145.277 4.816C144.633 5.362 144.311 6.076 144.311 6.986C144.311 7.882 144.633 8.582 145.207 9.044C145.809 9.492 146.369 9.744 147.195 9.968C147.979 10.178 148.511 10.374 148.791 10.542C149.085 10.696 149.225 10.92 149.225 11.214C149.225 11.746 148.777 12.012 147.895 12.012C146.915 12.012 146.229 11.564 145.837 10.654L143.905 11.774C144.465 13.272 145.823 14.196 147.825 14.196ZM157.274 3.5C157.232 3.164 157.358 3.08 157.54 2.996C157.876 2.842 158.17 2.492 158.17 1.932C158.17 1.176 157.54 0.742 156.546 0.742C155.622 0.742 155.062 1.05 154.684 1.792L155.944 2.254C156.084 1.96 156.308 1.876 156.518 1.876C156.63 1.876 156.728 1.946 156.728 2.016C156.728 2.1 156.672 2.128 156.616 2.184C156.63 2.17 156.42 2.282 156.42 2.282C156.014 2.464 155.804 2.632 155.804 3.5H157.274ZM161.264 14L157.932 4.2H155.076L151.744 14H154.194L154.684 12.46H158.324L158.814 14H161.264ZM156.504 6.762L157.652 10.36H155.356L156.504 6.762ZM167.56 9.52L163.78 4.2H162.1V14H164.34V8.68L168.12 14H169.8V4.2H167.56V9.52Z" fill="#155AA9"/>
<path d="M174.279 4.2V6.356H176.799V14H179.039V6.356H181.559V4.2H174.279ZM187.859 7.952H184.779V4.2H182.539V14H184.779V10.108H187.859V14H190.099V4.2H187.859V7.952ZM200.461 14L197.129 4.2H194.273L190.941 14H193.391L193.881 12.46H197.521L198.011 14H200.461ZM195.701 6.762L196.849 10.36H194.553L195.701 6.762ZM196.079 3.5H197.969L196.583 1.54H194.665L193.279 3.5H195.169L195.631 2.772L196.079 3.5ZM196.555 17.024C197.045 16.534 197.045 15.792 196.555 15.316C196.065 14.84 195.309 14.84 194.805 15.316C194.329 15.792 194.329 16.534 194.805 17.024C195.309 17.486 196.065 17.486 196.555 17.024ZM199.9 4.2V6.356H202.42V14H204.66V6.356H207.18V4.2H199.9Z" fill="#F17423"/>
<path d="M85.3103 21C84.0249 21.1307 82.7394 21.1829 81.454 21.392C68.9932 23.6657 60.7035 36.7854 65.6616 49.1733C69.9639 59.9147 77.0468 68.8528 84.4708 77.5557C85.0217 78.2091 85.5202 78.0784 86.0186 77.4773C86.5695 76.7978 87.1466 76.1444 87.6975 75.4649C93.5475 68.2517 99.1614 60.8294 103.28 52.4402C105.352 48.2325 106.848 43.8941 106.139 39.033C104.592 28.762 95.8036 21.1045 85.3103 21ZM85.2316 57.2228C75.4466 57.1967 68.9932 49.1472 69.1769 41.0715C69.1769 32.2902 76.4697 25.077 85.3365 25.1554C93.941 25.2077 101.391 31.9766 101.365 41.2545C101.339 50.3232 94.1246 57.249 85.2316 57.2228Z" fill="#F17423"/>
<path d="M58.5788 52.4924C57.2934 49.3824 56.349 46.0371 52.9387 44.1554C53.3584 43.9202 53.5945 43.7634 53.8306 43.6588C57.2147 42.0646 59.3658 39.5295 59.8118 35.7923C60.3364 31.3494 59.1559 26.7496 54.3028 24.8941C52.4665 24.1884 50.4465 23.6919 48.5053 23.5873C44.203 23.3521 39.9008 23.4305 35.5985 23.4305C33.5261 23.4305 33.2113 23.7703 33.2113 25.8349C33.1851 37.5694 33.1851 49.304 33.1851 61.0124C33.1851 64.9848 33.5261 65.2985 37.566 64.8803C37.6447 64.8803 37.7234 64.8542 37.8021 64.8542C38.8252 64.7496 39.3761 64.2531 39.3499 63.1554C39.3236 61.3782 39.3499 59.5749 39.3499 57.7978V47.3439C41.1075 47.3439 42.6815 47.3439 44.2555 47.3439C48.5053 47.3439 50.394 48.5983 51.9943 52.5447C53.201 55.4979 54.3553 58.4773 55.5358 61.4566C56.9786 65.0632 57.2409 65.2201 61.1497 64.9326C61.2284 64.9326 61.3071 64.9064 61.412 64.9064C63.1434 64.7496 63.3795 64.436 62.7237 62.7895C61.3858 59.3397 59.9954 55.8899 58.5788 52.4924ZM48.6889 41.5681C45.8557 42.0646 42.8913 41.8555 39.9795 41.8817C39.7696 41.8817 39.4023 41.3328 39.4023 41.0192C39.3761 37.282 39.4023 33.5447 39.3761 29.8074C39.3761 29.1018 39.6647 28.8404 40.3467 28.8666C41.5272 28.8927 42.6815 28.8666 43.862 28.8666C43.862 28.8404 43.862 28.8143 43.862 28.762C45.3048 28.8666 46.8001 28.8404 48.2167 29.0756C51.5483 29.6506 53.3846 31.6107 53.542 34.5639C53.7257 37.8308 51.7844 41.0192 48.6889 41.5681Z" fill="#155AA9"/>
<path d="M164.141 39.9738C166.974 36.1059 169.808 32.2379 172.615 28.37C173.611 27.011 172.746 25.7826 172.3 24.502C171.906 23.4044 171.014 23.6396 170.201 23.6396C162.174 23.6396 154.173 23.6134 146.145 23.6134C143.496 23.6134 142.997 23.0907 143.076 26.7235C143.102 28.6052 143.312 28.8404 145.148 28.8404C150.998 28.8404 156.848 28.8404 162.698 28.8665C163.171 28.8665 163.669 28.9188 164.404 28.9449C164.036 29.4938 163.826 29.8335 163.59 30.1471C159.104 36.2888 154.592 42.4566 150.106 48.5983C147.273 52.4663 144.493 56.3603 141.633 60.176C140.558 61.6134 141.371 62.8418 141.817 64.1485C142.21 65.2723 143.207 65.011 144.047 65.011C152.861 65.0371 161.675 65.0371 170.49 65.0371C172.641 65.0371 172.929 64.7757 172.982 62.6066C172.982 62.2668 172.982 61.9271 172.929 61.6134C172.719 60.0192 172.483 59.8101 170.883 59.8101C164.404 59.8101 157.924 59.8101 151.471 59.784C150.998 59.784 150.526 59.7317 149.792 59.7056C150.185 59.1306 150.421 58.7647 150.684 58.3989C155.169 52.2833 159.655 46.1155 164.141 39.9738Z" fill="#155AA9"/>
<path d="M22.1146 25.1293C19.9635 24.1362 17.7337 23.4828 15.3727 23.4567C11.1229 23.4044 6.84687 23.3783 2.59709 23.3783C0.341032 23.3783 0.0786996 23.6919 0.0524664 25.8872C0.0524664 26.2531 0.0524664 26.6451 0.0524664 27.011L0 60.8295C0 64.9326 0.524664 65.3508 4.64328 64.802C5.74507 64.6451 6.2435 64.0963 6.21727 62.9725C6.19104 60.5681 6.21727 58.1376 6.21727 55.7332V47.7882C9.02423 47.7882 11.6738 47.9189 14.2709 47.7621C16.2384 47.6314 18.2845 47.3962 20.1471 46.7689C23.8198 45.5406 26.3119 42.9794 27.2038 39.1376C27.781 36.6025 27.7023 34.0413 27.1514 31.4801C26.548 28.553 24.9216 26.4099 22.1146 25.1293ZM21.0915 36.9161C20.6455 40.3136 18.678 42.2215 15.2153 42.4567C12.2771 42.6396 9.31279 42.4828 6.29597 42.4828L6.3222 29.1018C6.4009 29.0234 6.4796 28.9189 6.53207 28.9189C9.57512 28.945 12.6444 28.7359 15.6612 29.1018C20.1733 29.6506 21.6162 32.6562 21.0915 36.9161Z" fill="#155AA9"/>
<path d="M133.789 25.8611C131.324 24.4237 128.674 23.6135 125.841 23.5874C121.67 23.5351 117.499 23.509 113.328 23.509C110.862 23.509 110.521 23.8487 110.521 26.3315C110.521 37.9615 110.494 49.6176 110.494 61.2476C110.494 64.9588 110.888 65.2985 114.692 64.9849C116.449 64.8281 116.712 64.5929 116.712 62.868C116.712 58.4512 116.712 54.0606 116.738 49.6438C116.738 49.1211 116.817 48.5984 116.869 47.945C119.65 47.945 122.326 48.0757 124.975 47.9189C126.916 47.8143 128.91 47.5791 130.72 46.9519C134.708 45.5667 137.357 42.7703 137.908 38.5103C138.17 36.6025 138.118 34.6163 137.908 32.6823C137.567 29.8075 136.413 27.3769 133.789 25.8611ZM131.638 36.4196C131.297 40.6011 129.015 42.5351 124.739 42.6919C123.611 42.7442 122.483 42.6919 121.355 42.6919C120.174 42.6919 119.02 42.6658 117.84 42.6919C117.079 42.718 116.685 42.4828 116.685 41.6465C116.712 37.7002 116.712 33.7538 116.712 29.8075C116.712 29.2325 116.738 28.6837 117.551 28.7098C120.384 28.7882 123.244 28.6053 126.024 28.945C130.405 29.52 132.006 32.0289 131.638 36.4196Z" fill="#155AA9"/>
<path d="M207.085 23.6919C206.298 23.5874 205.511 23.6658 204.698 23.6658C203.622 23.6658 202.835 24.1101 202.232 25.0509C199.845 28.7621 197.405 32.4471 194.991 36.1321C194.493 36.89 193.994 37.6479 193.339 38.5888C192.919 37.9615 192.63 37.5434 192.342 37.1252C190.164 33.7277 187.987 30.3302 185.784 26.9326C183.475 23.3783 183.475 23.3522 179.147 23.6397C178.569 23.6658 177.756 23.8749 177.52 24.2669C177.31 24.6328 177.651 25.443 177.94 25.9134C181.691 31.663 185.521 37.3604 189.273 43.1101C189.745 43.8157 190.033 44.7827 190.033 45.6452C190.086 50.7676 190.033 55.8639 190.06 60.9863C190.086 64.5929 189.246 65.0633 194.126 64.9588C195.831 64.9065 196.277 64.4622 196.277 62.7896C196.277 57.0138 196.277 51.238 196.329 45.4361C196.329 44.7827 196.565 44.0248 196.906 43.476C198.612 40.758 200.422 38.1183 202.179 35.4526C204.252 32.3164 206.324 29.2064 208.37 26.0702C208.711 25.5475 209.131 24.5805 208.921 24.3453C208.554 23.9533 207.741 23.7703 207.085 23.6919Z" fill="#155AA9"/>
</svg>
