<?xml version="1.0" encoding="utf-8"?>
<!-- Generator: Adobe Illustrator 17.0.0, SVG Export Plug-In . SVG Version: 6.00 Build 0)  -->
<!DOCTYPE svg PUBLIC "-//W3C//DTD SVG 1.1//EN" "http://www.w3.org/Graphics/SVG/1.1/DTD/svg11.dtd">
<svg version="1.1" id="Layer_1" xmlns="http://www.w3.org/2000/svg" xmlns:xlink="http://www.w3.org/1999/xlink" x="0px" y="0px"
	 width="320.93px" height="292.185px" viewBox="0 0 320.93 292.185" enable-background="new 0 0 320.93 292.185"
	 xml:space="preserve">
<g opacity="0.5">
	<defs>
		<path id="SVGID_16_" opacity="0.5" d="M28.531-2916.843c0,0,77.572-14.365,166.636,34.476s218.35-14.365,281.557,14.365
			c63.207,28.73,132.159,68.953,238.461,40.222c106.302-28.73,181.001,28.73,229.842,25.857s123.54-51.715,195.366-37.349
			c71.826,14.365,161.759,6.843,225.968-41.111c64.208-47.953,104.431-53.699,104.431-53.699l5.581,638.673H19.747L28.531-2916.843z
			"/>
	</defs>
	<clipPath id="SVGID_1_">
		<use xlink:href="#SVGID_16_"  overflow="visible"/>
	</clipPath>
	<g clip-path="url(#SVGID_1_)">
		<g>
			<g opacity="0.55">
				<g>
					<path opacity="0.3" fill="#54A1CE" d="M48.765,12.5c3.02-7.633,7.861-14.344,13.996-19.592
						c-3.019-9.725-12.091-16.783-22.804-16.783c-10.725,0-19.796,7.058-22.828,16.783C23.277-1.844,28.13,4.867,31.15,12.5
						c2.852-0.509,5.8-0.791,8.807-0.791C42.953,11.709,45.889,11.99,48.765,12.5z"/>
					<path opacity="0.3" fill="#54A1CE" d="M159.07,12.5c3.032-7.633,7.873-14.344,14.021-19.592
						c-3.032-9.725-12.091-16.783-22.816-16.783c-10.725,0-19.796,7.058-22.816,16.783c6.135,5.248,10.989,11.959,13.996,19.592
						c2.876-0.509,5.812-0.791,8.82-0.791C153.283,11.709,156.219,11.99,159.07,12.5z"/>
					<path opacity="0.3" fill="#54A1CE" d="M269.4,12.5c3.02-7.633,7.861-14.344,14.008-19.592
						c-3.02-9.725-12.091-16.783-22.804-16.783c-10.737,0-19.808,7.058-22.828,16.783c6.135,5.248,10.989,11.959,14.008,19.592
						c2.864-0.509,5.812-0.791,8.82-0.791C263.612,11.709,266.548,11.99,269.4,12.5z"/>
					<path opacity="0.3" fill="#54A1CE" d="M-0.186-12.581v7.262C9.256-1.365,16.877,6.089,20.88,15.508
						c2.085-0.875,4.218-1.594,6.435-2.181C22.33,1.199,12.276-8.261-0.186-12.581z"/>
					<path opacity="0.3" fill="#54A1CE" d="M-0.186-1.173v8.706c4.985,3.229,8.904,7.963,11,13.606
						c2.073-1.486,4.266-2.84,6.555-4.008C13.989,9.061,7.698,2.542-0.186-1.173z"/>
					<path opacity="0.3" fill="#54A1CE" d="M-0.186,12.284V32.08c2.277-3.085,4.865-5.926,7.777-8.412
						C6.177,19.133,3.421,15.22-0.186,12.284z"/>
					<path opacity="0.3" fill="#54A1CE" d="M95.104-8.423c16.202,0,30.138,9.874,36.093,23.931c2.086-0.875,4.23-1.594,6.436-2.181
						c-6.867-16.729-23.32-28.514-42.529-28.514c-19.209,0-35.662,11.785-42.54,28.514c2.217,0.587,4.362,1.306,6.435,2.181
						C64.966,1.451,78.903-8.423,95.104-8.423z"/>
					<path opacity="0.3" fill="#54A1CE" d="M95.104,3.021c11.911,0,22.109,7.55,26.04,18.118c2.073-1.486,4.266-2.84,6.554-4.008
						C122.354,4.387,109.783-4.553,95.104-4.553c-14.679,0-27.25,8.94-32.594,21.684c2.289,1.174,4.482,2.522,6.567,4.008
						C72.995,10.571,83.193,3.021,95.104,3.021z"/>
					<path opacity="0.3" fill="#54A1CE" d="M103.899,43.261c3.02-7.628,7.885-14.338,14.032-19.593
						C114.888,13.95,105.829,6.88,95.104,6.88c-10.725,0-19.796,7.07-22.828,16.788c6.148,5.255,10.989,11.965,14.021,19.593
						c2.864-0.515,5.8-0.791,8.807-0.791C98.112,42.47,101.048,42.745,103.899,43.261z"/>
					<path opacity="0.3" fill="#54A1CE" d="M205.421-8.423c16.201,0,30.138,9.874,36.093,23.931
						c2.085-0.875,4.242-1.594,6.447-2.181c-6.866-16.729-23.331-28.514-42.54-28.514s-35.65,11.785-42.54,28.514
						c2.229,0.587,4.374,1.306,6.447,2.181C175.284,1.451,189.232-8.423,205.421-8.423z"/>
					<path opacity="0.3" fill="#54A1CE" d="M205.421,3.021c11.924,0,22.109,7.55,26.028,18.118c2.097-1.486,4.278-2.84,6.579-4.008
						c-5.345-12.744-17.927-21.684-32.607-21.684c-14.667,0-27.25,8.94-32.594,21.684c2.301,1.174,4.494,2.522,6.555,4.008
						C183.313,10.571,193.51,3.021,205.421,3.021z"/>
					<path opacity="0.3" fill="#54A1CE" d="M214.229,43.261c3.02-7.628,7.873-14.338,14.008-19.593
						C225.218,13.95,216.146,6.88,205.421,6.88c-10.725,0-19.784,7.07-22.828,16.788c6.159,5.255,11.013,11.965,14.032,19.593
						c2.84-0.515,5.788-0.791,8.796-0.791C208.429,42.47,211.365,42.745,214.229,43.261z"/>
					<path opacity="0.3" fill="#54A1CE" d="M315.751-8.423c16.201,0,30.138,9.874,36.093,23.931c2.085-0.875,4.23-1.594,6.435-2.181
						c-6.867-16.729-23.319-28.514-42.529-28.514c-19.221,0-35.65,11.785-42.54,28.514c2.217,0.587,4.362,1.306,6.435,2.181
						C285.625,1.451,299.55-8.423,315.751-8.423z"/>
					<path opacity="0.3" fill="#54A1CE" d="M315.751,3.021c11.924,0,22.109,7.55,26.028,18.118c2.073-1.486,4.266-2.84,6.567-4.008
						C343.013,4.387,330.43-4.553,315.751-4.553s-27.25,8.94-32.606,21.684c2.301,1.174,4.505,2.522,6.578,4.008
						C293.642,10.571,303.828,3.021,315.751,3.021z"/>
					<path opacity="0.3" fill="#54A1CE" d="M324.559,43.261c3.02-7.628,7.873-14.338,14.008-19.593
						c-3.02-9.718-12.091-16.788-22.816-16.788c-10.713,0-19.796,7.07-22.816,16.788c6.135,5.255,10.989,11.965,14.008,19.593
						c2.864-0.515,5.8-0.791,8.807-0.791C318.747,42.47,321.695,42.745,324.559,43.261z"/>
					<path opacity="0.3" fill="#54A1CE" d="M39.957,15.597c-17.304,0-32.294,9.593-40.143,23.715v5.621
						c1.354,0.431,2.732,0.821,4.038,1.36c5.967-14.044,19.892-23.93,36.105-23.93c16.189,0,30.126,9.886,36.094,23.93
						c2.073-0.863,4.23-1.593,6.435-2.169C75.607,27.383,59.166,15.597,39.957,15.597z"/>
					<path opacity="0.3" fill="#54A1CE" d="M39.957,33.806c11.912,0,22.097,7.555,26.028,18.125
						c2.073-1.504,4.266-2.846,6.555-4.014c-5.332-12.732-17.915-21.684-32.583-21.684c-14.679,0-27.262,8.952-32.606,21.684
						c2.301,1.168,4.506,2.511,6.567,4.014C17.848,41.356,28.022,33.806,39.957,33.806z"/>
					<path opacity="0.3" fill="#54A1CE" d="M48.765,74.046c3.02-7.621,7.861-14.338,13.996-19.593
						c-3.019-9.712-12.091-16.788-22.804-16.788c-10.725,0-19.796,7.076-22.828,16.788c6.148,5.255,11.001,11.971,14.021,19.593
						c2.852-0.515,5.8-0.791,8.807-0.791C42.953,73.255,45.889,73.53,48.765,74.046z"/>
					<path opacity="0.3" fill="#54A1CE" d="M150.275,22.362c16.201,0,30.138,9.886,36.093,23.93c2.085-0.863,4.23-1.593,6.435-2.169
						c-6.878-16.74-23.319-28.526-42.529-28.526c-19.209,0-35.674,11.785-42.54,28.526c2.205,0.576,4.35,1.306,6.435,2.169
						C120.137,32.248,134.073,22.362,150.275,22.362z"/>
					<path opacity="0.3" fill="#54A1CE" d="M150.275,33.806c11.924,0,22.097,7.555,26.028,18.125
						c2.085-1.504,4.266-2.846,6.567-4.014c-5.345-12.732-17.927-21.684-32.594-21.684c-14.68,0-27.261,8.952-32.594,21.684
						c2.289,1.168,4.482,2.511,6.567,4.014C128.166,41.356,138.352,33.806,150.275,33.806z"/>
					<path opacity="0.3" fill="#54A1CE" d="M159.07,74.046c3.032-7.621,7.873-14.338,14.021-19.593
						c-3.032-9.712-12.091-16.788-22.816-16.788c-10.725,0-19.796,7.076-22.816,16.788c6.135,5.255,10.989,11.971,13.996,19.593
						c2.876-0.515,5.812-0.791,8.82-0.791C153.283,73.255,156.219,73.53,159.07,74.046z"/>
					<path opacity="0.3" fill="#54A1CE" d="M260.604,22.362c16.202,0,30.114,9.886,36.094,23.93
						c2.085-0.863,4.218-1.593,6.435-2.169c-6.878-16.74-23.319-28.526-42.529-28.526c-19.221,0-35.662,11.785-42.54,28.526
						c2.217,0.576,4.362,1.306,6.435,2.169C230.466,32.248,244.403,22.362,260.604,22.362z"/>
					<path opacity="0.3" fill="#54A1CE" d="M260.604,33.806c11.911,0,22.11,7.555,26.028,18.125
						c2.073-1.504,4.266-2.846,6.567-4.014c-5.345-12.732-17.926-21.684-32.594-21.684c-14.679,0-27.261,8.952-32.594,21.684
						c2.289,1.168,4.482,2.511,6.555,4.014C238.483,41.356,248.681,33.806,260.604,33.806z"/>
					<path opacity="0.3" fill="#54A1CE" d="M269.4,74.046c3.02-7.621,7.861-14.338,14.008-19.593
						c-3.02-9.712-12.091-16.788-22.804-16.788c-10.737,0-19.808,7.076-22.828,16.788c6.135,5.255,10.989,11.971,14.008,19.593
						c2.864-0.515,5.812-0.791,8.82-0.791C263.612,73.255,266.548,73.53,269.4,74.046z"/>
					<path opacity="0.3" fill="#54A1CE" d="M-0.186,48.959v7.268c9.442,3.954,17.064,11.408,21.067,20.82
						c2.085-0.857,4.218-1.588,6.435-2.163C22.33,62.746,12.276,53.291-0.186,48.959z"/>
					<path opacity="0.3" fill="#54A1CE" d="M-0.186,60.373v8.706c4.985,3.23,8.904,7.963,11,13.607
						c2.073-1.492,4.266-2.84,6.555-4.014C13.989,70.606,7.698,64.087-0.186,60.373z"/>
					<path opacity="0.3" fill="#54A1CE" d="M-0.186,73.842v19.784c2.277-3.086,4.865-5.92,7.777-8.401
						C6.177,80.684,3.421,76.772-0.186,73.842z"/>
					<path opacity="0.3" fill="#54A1CE" d="M95.104,53.123c16.202,0,30.138,9.887,36.093,23.924c2.086-0.857,4.23-1.588,6.436-2.163
						c-6.867-16.734-23.32-28.532-42.529-28.532c-19.209,0-35.662,11.798-42.54,28.532c2.217,0.575,4.362,1.306,6.435,2.163
						C64.966,63.009,78.903,53.123,95.104,53.123z"/>
					<path opacity="0.3" fill="#54A1CE" d="M95.104,64.567c11.911,0,22.109,7.555,26.04,18.118c2.073-1.492,4.266-2.84,6.554-4.014
						c-5.345-12.732-17.915-21.678-32.594-21.678c-14.679,0-27.25,8.945-32.594,21.678c2.289,1.174,4.482,2.516,6.567,4.014
						C72.995,72.122,83.193,64.567,95.104,64.567z"/>
					<path opacity="0.3" fill="#54A1CE" d="M103.899,104.807c3.02-7.621,7.885-14.344,14.032-19.581
						c-3.044-9.73-12.103-16.788-22.828-16.788c-10.725,0-19.796,7.058-22.828,16.788c6.148,5.237,10.989,11.96,14.021,19.581
						c2.864-0.515,5.8-0.791,8.807-0.791C98.112,104.015,101.048,104.291,103.899,104.807z"/>
					<path opacity="0.3" fill="#54A1CE" d="M205.421,53.123c16.201,0,30.138,9.887,36.093,23.924
						c2.085-0.857,4.242-1.588,6.447-2.163c-6.866-16.734-23.331-28.532-42.54-28.532s-35.65,11.798-42.54,28.532
						c2.229,0.575,4.374,1.306,6.447,2.163C175.284,63.009,189.232,53.123,205.421,53.123z"/>
					<path opacity="0.3" fill="#54A1CE" d="M205.421,64.567c11.924,0,22.109,7.555,26.028,18.118
						c2.097-1.492,4.278-2.84,6.579-4.014c-5.345-12.732-17.927-21.678-32.607-21.678c-14.667,0-27.25,8.945-32.594,21.678
						c2.301,1.174,4.494,2.516,6.555,4.014C183.313,72.122,193.51,64.567,205.421,64.567z"/>
					<path opacity="0.3" fill="#54A1CE" d="M214.229,104.807c3.02-7.621,7.873-14.344,14.008-19.581
						c-3.019-9.73-12.091-16.788-22.816-16.788c-10.725,0-19.784,7.058-22.828,16.788c6.159,5.237,11.013,11.96,14.032,19.581
						c2.84-0.515,5.788-0.791,8.796-0.791C208.429,104.015,211.365,104.291,214.229,104.807z"/>
					<path opacity="0.3" fill="#54A1CE" d="M315.751,53.123c16.201,0,30.138,9.887,36.093,23.924
						c2.085-0.857,4.23-1.588,6.435-2.163c-6.867-16.734-23.319-28.532-42.529-28.532c-19.221,0-35.65,11.798-42.54,28.532
						c2.217,0.575,4.362,1.306,6.435,2.163C285.625,63.009,299.55,53.123,315.751,53.123z"/>
					<path opacity="0.3" fill="#54A1CE" d="M315.751,64.567c11.924,0,22.109,7.555,26.028,18.118
						c2.073-1.492,4.266-2.84,6.567-4.014c-5.332-12.732-17.915-21.678-32.594-21.678s-27.25,8.945-32.606,21.678
						c2.301,1.174,4.505,2.516,6.578,4.014C293.642,72.122,303.828,64.567,315.751,64.567z"/>
					<path opacity="0.3" fill="#54A1CE" d="M324.559,104.807c3.02-7.621,7.873-14.344,14.008-19.581
						c-3.02-9.73-12.091-16.788-22.816-16.788c-10.713,0-19.796,7.058-22.816,16.788c6.135,5.237,10.989,11.96,14.008,19.581
						c2.864-0.515,5.8-0.791,8.807-0.791C318.747,104.015,321.695,104.291,324.559,104.807z"/>
					<path opacity="0.3" fill="#54A1CE" d="M39.957,77.125c-17.304,0-32.294,9.599-40.143,23.709v5.614
						c1.354,0.431,2.732,0.821,4.038,1.354c5.967-14.044,19.892-23.918,36.105-23.918c16.189,0,30.126,9.874,36.094,23.918
						c2.073-0.85,4.23-1.593,6.435-2.169C75.607,88.911,59.166,77.125,39.957,77.125z"/>
					<path opacity="0.3" fill="#54A1CE" d="M39.957,95.328c11.912,0,22.097,7.55,26.028,18.119c2.073-1.498,4.266-2.84,6.555-4.014
						c-5.332-12.738-17.915-21.678-32.583-21.678c-14.679,0-27.262,8.939-32.606,21.678c2.301,1.174,4.506,2.516,6.567,4.014
						C17.848,102.877,28.022,95.328,39.957,95.328z"/>
					<path opacity="0.3" fill="#54A1CE" d="M48.765,135.556c3.02-7.621,7.861-14.332,13.996-19.569
						c-3.019-9.73-12.091-16.788-22.804-16.788c-10.725,0-19.796,7.058-22.828,16.788c6.148,5.237,11.001,11.947,14.021,19.569
						c2.852-0.504,5.8-0.779,8.807-0.779C42.953,134.776,45.889,135.052,48.765,135.556z"/>
					<path opacity="0.3" fill="#54A1CE" d="M150.275,83.884c16.201,0,30.138,9.874,36.093,23.918c2.085-0.85,4.23-1.593,6.435-2.169
						c-6.878-16.723-23.319-28.508-42.529-28.508c-19.209,0-35.674,11.785-42.54,28.508c2.205,0.576,4.35,1.319,6.435,2.169
						C120.137,93.758,134.073,83.884,150.275,83.884z"/>
					<path opacity="0.3" fill="#54A1CE" d="M150.275,95.328c11.924,0,22.097,7.55,26.028,18.119c2.085-1.498,4.266-2.84,6.567-4.014
						c-5.345-12.738-17.927-21.678-32.594-21.678c-14.68,0-27.261,8.939-32.594,21.678c2.289,1.174,4.482,2.516,6.567,4.014
						C128.166,102.877,138.352,95.328,150.275,95.328z"/>
					<path opacity="0.3" fill="#54A1CE" d="M159.07,135.556c3.032-7.621,7.873-14.332,14.021-19.569
						c-3.032-9.73-12.091-16.788-22.816-16.788c-10.725,0-19.796,7.058-22.816,16.788c6.135,5.237,10.989,11.947,13.996,19.569
						c2.876-0.504,5.812-0.779,8.82-0.779C153.283,134.776,156.219,135.052,159.07,135.556z"/>
					<path opacity="0.3" fill="#54A1CE" d="M260.604,83.884c16.202,0,30.114,9.874,36.094,23.918
						c2.085-0.85,4.218-1.593,6.435-2.169c-6.878-16.723-23.319-28.508-42.529-28.508c-19.221,0-35.662,11.785-42.54,28.508
						c2.217,0.576,4.362,1.319,6.435,2.169C230.466,93.758,244.403,83.884,260.604,83.884z"/>
					<path opacity="0.3" fill="#54A1CE" d="M260.604,95.328c11.911,0,22.11,7.55,26.028,18.119c2.073-1.498,4.266-2.84,6.567-4.014
						c-5.345-12.738-17.926-21.678-32.594-21.678c-14.679,0-27.261,8.939-32.594,21.678c2.289,1.174,4.482,2.516,6.555,4.014
						C238.483,102.877,248.681,95.328,260.604,95.328z"/>
					<path opacity="0.3" fill="#54A1CE" d="M269.4,135.556c3.02-7.621,7.861-14.332,14.008-19.569
						c-3.02-9.73-12.091-16.788-22.804-16.788c-10.737,0-19.808,7.058-22.828,16.788c6.135,5.237,10.989,11.947,14.008,19.569
						c2.864-0.504,5.812-0.779,8.82-0.779C263.612,134.776,266.548,135.052,269.4,135.556z"/>
					<path opacity="0.3" fill="#54A1CE" d="M-0.186,110.486v7.268c9.442,3.949,17.064,11.402,21.067,20.821
						c2.085-0.875,4.218-1.606,6.435-2.181C22.33,124.267,12.276,114.812-0.186,110.486z"/>
					<path opacity="0.3" fill="#54A1CE" d="M-0.186,121.895v8.706c4.985,3.229,8.904,7.963,11,13.619
						c2.073-1.51,4.266-2.864,6.555-4.027C13.989,132.14,7.698,125.609-0.186,121.895z"/>
					<path opacity="0.3" fill="#54A1CE" d="M-0.186,135.364v19.784c2.277-3.085,4.865-5.919,7.777-8.412
						C6.177,142.206,3.421,138.294-0.186,135.364z"/>
					<path opacity="0.3" fill="#54A1CE" d="M95.104,114.645c16.202,0,30.138,9.874,36.093,23.931
						c2.086-0.875,4.23-1.606,6.436-2.181c-6.867-16.729-23.32-28.508-42.529-28.508c-19.209,0-35.662,11.779-42.54,28.508
						c2.217,0.575,4.362,1.306,6.435,2.181C64.966,124.519,78.903,114.645,95.104,114.645z"/>
					<path opacity="0.3" fill="#54A1CE" d="M95.104,126.089c11.911,0,22.109,7.55,26.04,18.131c2.073-1.51,4.266-2.864,6.554-4.027
						c-5.345-12.726-17.915-21.678-32.594-21.678c-14.679,0-27.25,8.952-32.594,21.678c2.289,1.163,4.482,2.517,6.567,4.027
						C72.995,133.638,83.193,126.089,95.104,126.089z"/>
					<path opacity="0.3" fill="#54A1CE" d="M103.899,166.328c3.02-7.621,7.885-14.344,14.032-19.593
						c-3.044-9.718-12.103-16.776-22.828-16.776c-10.725,0-19.796,7.058-22.828,16.776c6.148,5.249,10.989,11.971,14.021,19.593
						c2.864-0.515,5.8-0.791,8.807-0.791C98.112,165.537,101.048,165.813,103.899,166.328z"/>
					<path opacity="0.3" fill="#54A1CE" d="M205.421,114.645c16.201,0,30.138,9.874,36.093,23.931
						c2.085-0.875,4.242-1.606,6.447-2.181c-6.866-16.729-23.331-28.508-42.54-28.508s-35.65,11.779-42.54,28.508
						c2.229,0.575,4.374,1.306,6.447,2.181C175.284,124.519,189.232,114.645,205.421,114.645z"/>
					<path opacity="0.3" fill="#54A1CE" d="M205.421,126.089c11.924,0,22.109,7.55,26.028,18.131
						c2.097-1.51,4.278-2.864,6.579-4.027c-5.345-12.726-17.927-21.678-32.607-21.678c-14.667,0-27.25,8.952-32.594,21.678
						c2.301,1.163,4.494,2.517,6.555,4.027C183.313,133.638,193.51,126.089,205.421,126.089z"/>
					<path opacity="0.3" fill="#54A1CE" d="M214.229,166.328c3.02-7.621,7.873-14.344,14.008-19.593
						c-3.019-9.718-12.091-16.776-22.816-16.776c-10.725,0-19.784,7.058-22.828,16.776c6.159,5.249,11.013,11.971,14.032,19.593
						c2.84-0.515,5.788-0.791,8.796-0.791C208.429,165.537,211.365,165.813,214.229,166.328z"/>
					<path opacity="0.3" fill="#54A1CE" d="M315.751,114.645c16.201,0,30.138,9.874,36.093,23.931
						c2.085-0.875,4.23-1.606,6.435-2.181c-6.867-16.729-23.319-28.508-42.529-28.508c-19.221,0-35.65,11.779-42.54,28.508
						c2.217,0.575,4.362,1.306,6.435,2.181C285.625,124.519,299.55,114.645,315.751,114.645z"/>
					<path opacity="0.3" fill="#54A1CE" d="M315.751,126.089c11.924,0,22.109,7.55,26.028,18.131
						c2.073-1.51,4.266-2.864,6.567-4.027c-5.332-12.726-17.915-21.678-32.594-21.678s-27.25,8.952-32.606,21.678
						c2.301,1.163,4.505,2.517,6.578,4.027C293.642,133.638,303.828,126.089,315.751,126.089z"/>
					<path opacity="0.3" fill="#54A1CE" d="M324.559,166.328c3.02-7.621,7.873-14.344,14.008-19.593
						c-3.02-9.718-12.091-16.776-22.816-16.776c-10.713,0-19.796,7.058-22.816,16.776c6.135,5.249,10.989,11.971,14.008,19.593
						c2.864-0.515,5.8-0.791,8.807-0.791C318.747,165.537,321.695,165.813,324.559,166.328z"/>
					<path opacity="0.3" fill="#54A1CE" d="M39.957,138.635c-17.304,0-32.294,9.605-40.143,23.727v5.614
						c1.354,0.432,2.732,0.815,4.038,1.36c5.967-14.044,19.892-23.931,36.105-23.931c16.189,0,30.126,9.887,36.094,23.931
						c2.073-0.874,4.23-1.593,6.435-2.169C75.607,150.427,59.166,138.635,39.957,138.635z"/>
					<path opacity="0.3" fill="#54A1CE" d="M39.957,156.85c11.912,0,22.097,7.549,26.028,18.118c2.073-1.486,4.266-2.84,6.555-4.014
						c-5.332-12.726-17.915-21.678-32.583-21.678c-14.679,0-27.262,8.952-32.606,21.678c2.301,1.174,4.506,2.528,6.567,4.014
						C17.848,164.399,28.022,156.85,39.957,156.85z"/>
					<path opacity="0.3" fill="#54A1CE" d="M48.765,197.089c3.02-7.621,7.861-14.344,13.996-19.593
						c-3.019-9.718-12.091-16.788-22.804-16.788c-10.725,0-19.796,7.07-22.828,16.788c6.148,5.249,11.001,11.971,14.021,19.593
						c2.852-0.504,5.8-0.791,8.807-0.791C42.953,196.299,45.889,196.586,48.765,197.089z"/>
					<path opacity="0.3" fill="#54A1CE" d="M150.275,145.405c16.201,0,30.138,9.887,36.093,23.931
						c2.085-0.874,4.23-1.593,6.435-2.169c-6.878-16.74-23.319-28.532-42.529-28.532c-19.209,0-35.674,11.792-42.54,28.532
						c2.205,0.576,4.35,1.295,6.435,2.169C120.137,155.292,134.073,145.405,150.275,145.405z"/>
					<path opacity="0.3" fill="#54A1CE" d="M150.275,156.85c11.924,0,22.097,7.549,26.028,18.118
						c2.085-1.486,4.266-2.84,6.567-4.014c-5.345-12.726-17.927-21.678-32.594-21.678c-14.68,0-27.261,8.952-32.594,21.678
						c2.289,1.174,4.482,2.528,6.567,4.014C128.166,164.399,138.352,156.85,150.275,156.85z"/>
					<path opacity="0.3" fill="#54A1CE" d="M159.07,197.089c3.032-7.621,7.873-14.344,14.021-19.593
						c-3.032-9.718-12.091-16.788-22.816-16.788c-10.725,0-19.796,7.07-22.816,16.788c6.135,5.249,10.989,11.971,13.996,19.593
						c2.876-0.504,5.812-0.791,8.82-0.791C153.283,196.299,156.219,196.586,159.07,197.089z"/>
					<path opacity="0.3" fill="#54A1CE" d="M260.604,145.405c16.202,0,30.114,9.887,36.094,23.931
						c2.085-0.874,4.218-1.593,6.435-2.169c-6.878-16.74-23.319-28.532-42.529-28.532c-19.221,0-35.662,11.792-42.54,28.532
						c2.217,0.576,4.362,1.295,6.435,2.169C230.466,155.292,244.403,145.405,260.604,145.405z"/>
					<path opacity="0.3" fill="#54A1CE" d="M260.604,156.85c11.911,0,22.11,7.549,26.028,18.118c2.073-1.486,4.266-2.84,6.567-4.014
						c-5.345-12.726-17.926-21.678-32.594-21.678c-14.679,0-27.261,8.952-32.594,21.678c2.289,1.174,4.482,2.528,6.555,4.014
						C238.483,164.399,248.681,156.85,260.604,156.85z"/>
					<path opacity="0.3" fill="#54A1CE" d="M269.4,197.089c3.02-7.621,7.861-14.344,14.008-19.593
						c-3.02-9.718-12.091-16.788-22.804-16.788c-10.737,0-19.808,7.07-22.828,16.788c6.135,5.249,10.989,11.971,14.008,19.593
						c2.864-0.504,5.812-0.791,8.82-0.791C263.612,196.299,266.548,196.586,269.4,197.089z"/>
					<path opacity="0.3" fill="#54A1CE" d="M-0.186,172.002v7.268c9.442,3.954,17.064,11.414,21.067,20.827
						c2.085-0.863,4.218-1.606,6.435-2.181C22.33,185.789,12.276,176.328-0.186,172.002z"/>
					<path opacity="0.3" fill="#54A1CE" d="M-0.186,183.411v8.706c4.985,3.236,8.904,7.969,11,13.613
						c2.073-1.498,4.266-2.84,6.555-4.014C13.989,193.65,7.698,187.125-0.186,183.411z"/>
					<path opacity="0.3" fill="#54A1CE" d="M-0.186,196.886v19.784c2.277-3.086,4.865-5.92,7.777-8.412
						C6.177,203.728,3.421,199.815-0.186,196.886z"/>
					<path opacity="0.3" fill="#54A1CE" d="M95.104,176.166c16.202,0,30.138,9.886,36.093,23.931
						c2.086-0.863,4.23-1.606,6.436-2.181c-6.867-16.728-23.32-28.52-42.529-28.52c-19.209,0-35.662,11.792-42.54,28.52
						c2.217,0.576,4.362,1.318,6.435,2.181C64.966,186.052,78.903,176.166,95.104,176.166z"/>
					<path opacity="0.3" fill="#54A1CE" d="M95.104,187.61c11.911,0,22.109,7.55,26.04,18.119c2.073-1.498,4.266-2.84,6.554-4.014
						c-5.345-12.738-17.915-21.678-32.594-21.678c-14.679,0-27.25,8.939-32.594,21.678c2.289,1.174,4.482,2.516,6.567,4.014
						C72.995,195.16,83.193,187.61,95.104,187.61z"/>
					<path opacity="0.3" fill="#54A1CE" d="M103.899,227.85c3.02-7.621,7.885-14.344,14.032-19.592
						c-3.044-9.718-12.103-16.777-22.828-16.777c-10.725,0-19.796,7.058-22.828,16.777c6.148,5.248,10.989,11.971,14.021,19.592
						c2.864-0.515,5.8-0.791,8.807-0.791C98.112,227.059,101.048,227.335,103.899,227.85z"/>
					<path opacity="0.3" fill="#54A1CE" d="M205.421,176.166c16.201,0,30.138,9.886,36.093,23.931
						c2.085-0.863,4.242-1.606,6.447-2.181c-6.866-16.728-23.331-28.52-42.54-28.52s-35.65,11.792-42.54,28.52
						c2.229,0.576,4.374,1.318,6.447,2.181C175.284,186.052,189.232,176.166,205.421,176.166z"/>
					<path opacity="0.3" fill="#54A1CE" d="M205.421,187.61c11.924,0,22.109,7.55,26.028,18.119c2.097-1.498,4.278-2.84,6.579-4.014
						c-5.345-12.738-17.927-21.678-32.607-21.678c-14.667,0-27.25,8.939-32.594,21.678c2.301,1.174,4.494,2.516,6.555,4.014
						C183.313,195.16,193.51,187.61,205.421,187.61z"/>
					<path opacity="0.3" fill="#54A1CE" d="M214.229,227.85c3.02-7.621,7.873-14.344,14.008-19.592
						c-3.019-9.718-12.091-16.777-22.816-16.777c-10.725,0-19.784,7.058-22.828,16.777c6.159,5.248,11.013,11.971,14.032,19.592
						c2.84-0.515,5.788-0.791,8.796-0.791C208.429,227.059,211.365,227.335,214.229,227.85z"/>
					<path opacity="0.3" fill="#54A1CE" d="M315.751,176.166c16.201,0,30.138,9.886,36.093,23.931
						c2.085-0.863,4.23-1.606,6.435-2.181c-6.867-16.728-23.319-28.52-42.529-28.52c-19.221,0-35.65,11.792-42.54,28.52
						c2.217,0.576,4.362,1.318,6.435,2.181C285.625,186.052,299.55,176.166,315.751,176.166z"/>
					<path opacity="0.3" fill="#54A1CE" d="M315.751,187.61c11.924,0,22.109,7.55,26.028,18.119c2.073-1.498,4.266-2.84,6.567-4.014
						c-5.332-12.738-17.915-21.678-32.594-21.678s-27.25,8.939-32.606,21.678c2.301,1.174,4.505,2.516,6.578,4.014
						C293.642,195.16,303.828,187.61,315.751,187.61z"/>
					<path opacity="0.3" fill="#54A1CE" d="M324.559,227.85c3.02-7.621,7.873-14.344,14.008-19.592
						c-3.02-9.718-12.091-16.777-22.816-16.777c-10.713,0-19.796,7.058-22.816,16.777c6.135,5.248,10.989,11.971,14.008,19.592
						c2.864-0.515,5.8-0.791,8.807-0.791C318.747,227.059,321.695,227.335,324.559,227.85z"/>
					<path opacity="0.3" fill="#54A1CE" d="M39.957,200.169c-17.304,0-32.294,9.593-40.143,23.715v5.608
						c1.354,0.431,2.732,0.821,4.038,1.366c5.967-14.056,19.892-23.931,36.105-23.931c16.189,0,30.126,9.874,36.094,23.931
						c2.073-0.863,4.23-1.594,6.435-2.169C75.607,211.948,59.166,200.169,39.957,200.169z"/>
					<path opacity="0.3" fill="#54A1CE" d="M39.957,218.371c11.912,0,22.097,7.55,26.028,18.131c2.073-1.51,4.266-2.84,6.555-4.027
						c-5.332-12.726-17.915-21.678-32.583-21.678c-14.679,0-27.262,8.952-32.606,21.678c2.301,1.187,4.506,2.517,6.567,4.027
						C17.848,225.921,28.022,218.371,39.957,218.371z"/>
					<path opacity="0.3" fill="#54A1CE" d="M48.765,258.611c3.02-7.621,7.861-14.332,13.996-19.581
						c-3.019-9.718-12.091-16.801-22.804-16.801c-10.725,0-19.796,7.082-22.828,16.801c6.148,5.249,11.001,11.959,14.021,19.581
						c2.852-0.515,5.8-0.791,8.807-0.791C42.953,257.82,45.889,258.096,48.765,258.611z"/>
					<path opacity="0.3" fill="#54A1CE" d="M150.275,206.928c16.201,0,30.138,9.874,36.093,23.931
						c2.085-0.863,4.23-1.594,6.435-2.169c-6.878-16.741-23.319-28.52-42.529-28.52c-19.209,0-35.674,11.779-42.54,28.52
						c2.205,0.575,4.35,1.306,6.435,2.169C120.137,216.802,134.073,206.928,150.275,206.928z"/>
					<path opacity="0.3" fill="#54A1CE" d="M150.275,218.371c11.924,0,22.097,7.55,26.028,18.131c2.085-1.51,4.266-2.84,6.567-4.027
						c-5.345-12.726-17.927-21.678-32.594-21.678c-14.68,0-27.261,8.952-32.594,21.678c2.289,1.187,4.482,2.517,6.567,4.027
						C128.166,225.921,138.352,218.371,150.275,218.371z"/>
					<path opacity="0.3" fill="#54A1CE" d="M159.07,258.611c3.032-7.621,7.873-14.332,14.021-19.581
						c-3.032-9.718-12.091-16.801-22.816-16.801c-10.725,0-19.796,7.082-22.816,16.801c6.135,5.249,10.989,11.959,13.996,19.581
						c2.876-0.515,5.812-0.791,8.82-0.791C153.283,257.82,156.219,258.096,159.07,258.611z"/>
					<path opacity="0.3" fill="#54A1CE" d="M260.604,206.928c16.202,0,30.114,9.874,36.094,23.931
						c2.085-0.863,4.218-1.594,6.435-2.169c-6.878-16.741-23.319-28.52-42.529-28.52c-19.221,0-35.662,11.779-42.54,28.52
						c2.217,0.575,4.362,1.306,6.435,2.169C230.466,216.802,244.403,206.928,260.604,206.928z"/>
					<path opacity="0.3" fill="#54A1CE" d="M260.604,218.371c11.911,0,22.11,7.55,26.028,18.131c2.073-1.51,4.266-2.84,6.567-4.027
						c-5.345-12.726-17.926-21.678-32.594-21.678c-14.679,0-27.261,8.952-32.594,21.678c2.289,1.187,4.482,2.517,6.555,4.027
						C238.483,225.921,248.681,218.371,260.604,218.371z"/>
					<path opacity="0.3" fill="#54A1CE" d="M269.4,258.611c3.02-7.621,7.861-14.332,14.008-19.581
						c-3.02-9.718-12.091-16.801-22.804-16.801c-10.737,0-19.808,7.082-22.828,16.801c6.135,5.249,10.989,11.959,14.008,19.581
						c2.864-0.515,5.812-0.791,8.82-0.791C263.612,257.82,266.548,258.096,269.4,258.611z"/>
					<path opacity="0.3" fill="#54A1CE" d="M-0.186,233.792v7.268c9.442,3.954,17.064,11.402,21.067,20.814
						c2.085-0.863,4.218-1.593,6.435-2.169C22.33,247.566,12.276,238.112-0.186,233.792z"/>
					<path opacity="0.3" fill="#54A1CE" d="M-0.186,245.2v8.706c4.985,3.236,8.904,7.969,11,13.619
						c2.073-1.504,4.266-2.846,6.555-4.02C13.989,255.439,7.698,248.914-0.186,245.2z"/>
					<path opacity="0.3" fill="#54A1CE" d="M-0.186,258.675v19.778c2.277-3.086,4.865-5.92,7.777-8.406
						C6.177,265.517,3.421,261.599-0.186,258.675z"/>
					<path opacity="0.3" fill="#54A1CE" d="M95.104,237.956c16.202,0,30.138,9.874,36.093,23.918
						c2.086-0.863,4.23-1.593,6.436-2.169c-6.867-16.74-23.32-28.52-42.529-28.52c-19.209,0-35.662,11.779-42.54,28.52
						c2.217,0.576,4.362,1.306,6.435,2.169C64.966,247.83,78.903,237.956,95.104,237.956z"/>
					<path opacity="0.3" fill="#54A1CE" d="M95.104,249.4c11.911,0,22.109,7.55,26.04,18.125c2.073-1.504,4.266-2.846,6.554-4.02
						c-5.345-12.738-17.915-21.678-32.594-21.678c-14.679,0-27.25,8.939-32.594,21.678c2.289,1.174,4.482,2.516,6.567,4.02
						C72.995,256.949,83.193,249.4,95.104,249.4z"/>
					<path opacity="0.3" fill="#54A1CE" d="M103.899,289.634c3.02-7.621,7.885-14.344,14.032-19.587
						c-3.044-9.718-12.103-16.777-22.828-16.777c-10.725,0-19.796,7.058-22.828,16.777c6.148,5.243,10.989,11.965,14.021,19.587
						c2.864-0.51,5.8-0.785,8.807-0.785C98.112,288.848,101.048,289.124,103.899,289.634z"/>
					<path opacity="0.3" fill="#54A1CE" d="M205.421,237.956c16.201,0,30.138,9.874,36.093,23.918
						c2.085-0.863,4.242-1.593,6.447-2.169c-6.866-16.74-23.331-28.52-42.54-28.52s-35.65,11.779-42.54,28.52
						c2.229,0.576,4.374,1.306,6.447,2.169C175.284,247.83,189.232,237.956,205.421,237.956z"/>
					<path opacity="0.3" fill="#54A1CE" d="M205.421,249.4c11.924,0,22.109,7.55,26.028,18.125c2.097-1.504,4.278-2.846,6.579-4.02
						c-5.345-12.738-17.927-21.678-32.607-21.678c-14.667,0-27.25,8.939-32.594,21.678c2.301,1.174,4.494,2.516,6.555,4.02
						C183.313,256.949,193.51,249.4,205.421,249.4z"/>
					<path opacity="0.3" fill="#54A1CE" d="M214.229,289.634c3.02-7.621,7.873-14.344,14.008-19.587
						c-3.019-9.718-12.091-16.777-22.816-16.777c-10.725,0-19.784,7.058-22.828,16.777c6.159,5.243,11.013,11.965,14.032,19.587
						c2.84-0.51,5.788-0.785,8.796-0.785C208.429,288.848,211.365,289.124,214.229,289.634z"/>
					<path opacity="0.3" fill="#54A1CE" d="M315.751,237.956c16.201,0,30.138,9.874,36.093,23.918
						c2.085-0.863,4.23-1.593,6.435-2.169c-6.867-16.74-23.319-28.52-42.529-28.52c-19.221,0-35.65,11.779-42.54,28.52
						c2.217,0.576,4.362,1.306,6.435,2.169C285.625,247.83,299.55,237.956,315.751,237.956z"/>
					<path opacity="0.3" fill="#54A1CE" d="M315.751,249.4c11.924,0,22.109,7.55,26.028,18.125c2.073-1.504,4.266-2.846,6.567-4.02
						c-5.332-12.738-17.915-21.678-32.594-21.678s-27.25,8.939-32.606,21.678c2.301,1.174,4.505,2.516,6.578,4.02
						C293.642,256.949,303.828,249.4,315.751,249.4z"/>
					<path opacity="0.3" fill="#54A1CE" d="M324.559,289.634c3.02-7.621,7.873-14.344,14.008-19.587
						c-3.02-9.718-12.091-16.777-22.816-16.777c-10.713,0-19.796,7.058-22.816,16.777c6.135,5.243,10.989,11.965,14.008,19.587
						c2.864-0.51,5.8-0.785,8.807-0.785C318.747,288.848,321.695,289.124,324.559,289.634z"/>
					<path opacity="0.3" fill="#54A1CE" d="M39.957,261.947c-17.304,0-32.294,9.604-40.143,23.715v5.62
						c1.354,0.431,2.732,0.815,4.038,1.354c5.967-14.038,19.892-23.924,36.105-23.924c16.189,0,30.126,9.886,36.094,23.924
						c2.073-0.857,4.23-1.588,6.435-2.169C75.607,273.738,59.166,261.947,39.957,261.947z"/>
					<path opacity="0.3" fill="#54A1CE" d="M39.957,280.161c11.912,0,22.097,7.55,26.028,18.118
						c2.073-1.498,4.266-2.846,6.555-4.014c-5.332-12.738-17.915-21.671-32.583-21.671c-14.679,0-27.262,8.934-32.606,21.671
						c2.301,1.169,4.506,2.517,6.567,4.014C17.848,287.71,28.022,280.161,39.957,280.161z"/>
					<path opacity="0.3" fill="#54A1CE" d="M48.765,320.4c3.02-7.628,7.861-14.344,13.996-19.587
						c-3.019-9.724-12.091-16.782-22.804-16.782c-10.725,0-19.796,7.058-22.828,16.782c6.148,5.243,11.001,11.959,14.021,19.587
						c2.852-0.515,5.8-0.797,8.807-0.797C42.953,319.603,45.889,319.885,48.765,320.4z"/>
					<path opacity="0.3" fill="#54A1CE" d="M150.275,268.711c16.201,0,30.138,9.886,36.093,23.924
						c2.085-0.857,4.23-1.588,6.435-2.169c-6.878-16.729-23.319-28.52-42.529-28.52c-19.209,0-35.674,11.791-42.54,28.52
						c2.205,0.581,4.35,1.312,6.435,2.169C120.137,278.597,134.073,268.711,150.275,268.711z"/>
					<path opacity="0.3" fill="#54A1CE" d="M150.275,280.161c11.924,0,22.097,7.55,26.028,18.118
						c2.085-1.498,4.266-2.846,6.567-4.014c-5.345-12.738-17.927-21.671-32.594-21.671c-14.68,0-27.261,8.934-32.594,21.671
						c2.289,1.169,4.482,2.517,6.567,4.014C128.166,287.71,138.352,280.161,150.275,280.161z"/>
					<path opacity="0.3" fill="#54A1CE" d="M159.07,320.4c3.032-7.628,7.873-14.344,14.021-19.587
						c-3.032-9.724-12.091-16.782-22.816-16.782c-10.725,0-19.796,7.058-22.816,16.782c6.135,5.243,10.989,11.959,13.996,19.587
						c2.876-0.515,5.812-0.797,8.82-0.797C153.283,319.603,156.219,319.885,159.07,320.4z"/>
					<path opacity="0.3" fill="#54A1CE" d="M260.604,268.711c16.202,0,30.114,9.886,36.094,23.924
						c2.085-0.857,4.218-1.588,6.435-2.169c-6.878-16.729-23.319-28.52-42.529-28.52c-19.221,0-35.662,11.791-42.54,28.52
						c2.217,0.581,4.362,1.312,6.435,2.169C230.466,278.597,244.403,268.711,260.604,268.711z"/>
					<path opacity="0.3" fill="#54A1CE" d="M260.604,280.161c11.911,0,22.11,7.55,26.028,18.118
						c2.073-1.498,4.266-2.846,6.567-4.014c-5.345-12.738-17.926-21.671-32.594-21.671c-14.679,0-27.261,8.934-32.594,21.671
						c2.289,1.169,4.482,2.517,6.555,4.014C238.483,287.71,248.681,280.161,260.604,280.161z"/>
					<path opacity="0.3" fill="#54A1CE" d="M269.4,320.4c3.02-7.628,7.861-14.344,14.008-19.587
						c-3.02-9.724-12.091-16.782-22.804-16.782c-10.737,0-19.808,7.058-22.828,16.782c6.135,5.243,10.989,11.959,14.008,19.587
						c2.864-0.515,5.812-0.797,8.82-0.797C263.612,319.603,266.548,319.885,269.4,320.4z"/>
				</g>
			</g>
		</g>
	</g>
</g>
<g>
	<g>
		<path fill="#FFFFFF" d="M25.038,11.155c3.756,27.638,5.975,42.884,6.596,45.82c-1.371,1.291-2.582,1.604-3.756,1.1
			c-0.762-1.812-1.389-5.337-1.807-10.586c-0.188-1.374-1.174-9.714-3.012-24.864l-1.584-10.027c-3.396-1.676-7.09-0.656-11.1,2.908
			c0.203,2.036,0.328,3.492,0.445,4.361l4.235,30.076c0.108,0.797,0.378,2.234,0.88,4.303c0.492,1.996,0.771,3.506,0.826,4.455
			c-0.313,0.412-0.934,0.717-1.792,0.908c-0.931,0.199-1.52,0.206-1.931-0.107c-0.64-3.081-1.555-9.809-2.869-20.021
			C8.7,28.113,7.786,21.384,7.429,19.296l-1.19-8.754c0.847-1.368,1.892-1.805,3.21-1.321l0.558,3.019
			C14.217,7.984,18.242,6.7,22.093,8.46L25.038,11.155z"/>
		<path fill="#FFFFFF" d="M35.713,23.556c-0.118-0.867,1.075-1.84,3.571-2.99c2.435-1.067,5.063-1.793,7.884-2.177
			c1.881-0.255,2.976-0.33,3.349-0.308c1.259,0.051,2.08,0.676,2.455,1.804l2.166,17.021c0.836,6.149,1.811,11.69,2.83,16.489
			c-0.582,0.594-1.555,1.021-2.857,1.199c-0.797,0.107-1.367-0.846-1.705-2.79c-2.402,2.39-4.869,3.757-7.546,4.12
			c-1.302,0.178-2.788,0.084-4.449-0.205c-1.812-0.859-3.083-3.707-3.722-8.41c-0.757-5.57-0.26-8.955,1.412-10.213
			c0.332-0.266,2.559-1.232,6.535-2.879c3.002-1.219,4.736-2.559,5.283-3.96l-1.506-7.826c-0.865-0.398-2.197-0.438-4.078-0.183
			c-3.617,0.491-5.844,1.457-6.617,2.814l0.354,2.605c-0.075,0.525-0.336,0.782-0.842,0.852c-1.23,0.166-1.867-0.189-1.996-1.13
			L35.713,23.556z M48.519,14.228c-1.053,1.469-2.928,2.312-5.688,2.614c-2.9-0.195-5.105-2.327-6.533-6.333
			c0.085-0.454,0.706-0.76,1.791-0.907c0.182,0.786,0.888,1.648,1.977,2.605c1.17,1.02,2.188,1.471,3.139,1.415
			c1.9-0.111,3.217-0.731,3.957-1.79c0.303-0.483,0.662-1.638,1.087-3.39c1.065-0.292,1.713,0.135,1.88,1.365
			C49.492,12.179,48.956,13.652,48.519,14.228z M51.624,34.363c-0.543,0.885-2.037,1.824-4.533,2.975
			c-2.713,1.18-4.361,2.066-4.943,2.66c-1.112,1.036-1.449,3.439-0.928,7.274c0.482,3.545,1.408,5.482,2.707,5.821
			c3.762-0.512,6.727-2.02,8.963-4.534c-0.266-1.953-0.399-3.482-0.484-4.649C52.297,43.114,52.019,39.984,51.624,34.363z"/>
		<path fill="#FFFFFF" d="M94.371,16.542c2.438,17.942,3.999,28.341,4.62,31.277c-1.373,1.291-2.583,1.604-3.757,1.1
			c-0.761-1.813-1.388-5.337-1.807-10.586c-0.187-1.375-0.515-4.867-1.035-10.322L90.81,17.984
			c-3.314-1.612-6.945-0.677-10.955,2.889l3.943,29.012c-0.261,0.258-0.83,0.408-1.76,0.608c-1.004,0.21-1.746,0.163-2.148-0.077
			c-0.796-5.859-1.248-9.188-1.293-10.066c-0.188-1.374-0.516-4.867-1.035-10.322l-1.584-10.027c-3.396-1.675-7.09-0.657-11.1,2.909
			c0.203,2.036,0.328,3.493,0.445,4.36l0.912,5.623l1.347,9.912c0.108,0.796,0.378,2.233,0.88,4.302
			c0.492,1.997,0.771,3.506,0.826,4.456c-0.313,0.411-0.934,0.717-1.865,0.917c-0.93,0.2-1.591,0.216-2.002-0.097
			c-0.63-3.009-1.21-7.277-1.803-12.723c-0.783-6.305-1.291-10.584-1.688-12.961l-1.19-8.754c0.847-1.368,1.892-1.805,3.21-1.32
			l0.558,3.019c4.211-4.257,8.236-5.54,12.087-3.779l2.277,2.122c4.398-4.504,8.559-5.879,12.553-4.138L94.371,16.542z"/>
	</g>
</g>
<g>
	<g>
		<path fill="#F17423" d="M149.403,32.079c-3.047,38.414-4.53,59.648-4.556,63.795c-2.23,1.341-3.956,1.406-5.394,0.383
			c-0.496-2.671-0.306-7.615,0.671-14.823c0.151-1.911,1.269-13.459,3.237-34.452l0.807-14.002
			c-4.092-3.259-9.377-2.97-15.838,0.667c-0.323,2.808-0.585,4.811-0.681,6.018l-3.116,41.849c-0.087,1.106-0.147,3.125-0.077,6.065
			c0.079,2.84,0.012,4.959-0.192,6.259c-0.542,0.463-1.471,0.693-2.686,0.698c-1.315-0.004-2.111-0.168-2.575-0.711
			c0.042-4.348,0.783-13.7,2.009-27.871c1.353-15.78,2.095-25.132,2.226-28.056l0.965-12.168c1.543-1.598,3.084-1.881,4.722-0.84
			l-0.135,4.239c6.936-4.51,12.748-5.061,17.428-1.553L149.403,32.079z"/>
		<path fill="#F17423" d="M183.998,55.164c-1.979,24.938-2.926,39.435-2.951,43.581c-2.23,1.341-3.956,1.406-5.394,0.383
			c-0.497-2.671-0.306-7.615,0.671-14.823c0.151-1.91,0.734-6.722,1.635-14.239l0.807-14.002c-4.092-3.259-9.377-2.971-15.839,0.667
			c-0.323,2.808-0.583,4.811-0.679,6.017l-0.422,7.86l-1.094,13.776c-0.087,1.106-0.146,3.125-0.076,6.065
			c0.079,2.84,0.012,4.96-0.192,6.259c-0.542,0.464-1.471,0.693-2.687,0.698c-1.314-0.004-2.111-0.167-2.574-0.711
			c0.042-4.348,0.504-10.181,1.203-17.715c0.81-8.94,1.28-14.874,1.428-18l1.188-14.983c0.837-10.559,1.399-16.383,1.705-17.675
			c1.588-0.886,3.205-0.858,4.658-0.034c-0.127,4.138-0.674,9.762-1.534,16.777c-0.235,1.701-0.319,4.021-0.466,7.147
			c6.937-4.51,12.748-5.061,17.428-1.552L183.998,55.164z"/>
		<path fill="#F17423" d="M196.47,54.837c0.096-1.206,1.993-2.169,5.701-2.988c3.599-0.727,7.359-0.934,11.281-0.623
			c2.615,0.208,4.115,0.428,4.61,0.568c1.686,0.437,2.612,1.522,2.785,3.155l-2.075,23.615c-0.679,8.549-0.99,16.314-1.022,23.092
			c-0.96,0.632-2.4,0.924-4.211,0.78c-1.105-0.088-1.597-1.545-1.482-4.268c-3.943,2.521-7.677,3.642-11.397,3.347
			c-1.81-0.144-3.788-0.705-5.945-1.584c-2.193-1.692-3.072-5.911-2.554-12.447c0.613-7.743,2.28-12.166,4.905-13.374
			c0.527-0.262,3.816-0.911,9.668-1.965c4.413-0.763,7.146-2.064,8.295-3.795l0.267-11.009c-1.051-0.791-2.837-1.236-5.451-1.444
			c-5.027-0.398-8.317,0.251-9.761,1.856l-0.287,3.621c-0.256,0.688-0.684,0.957-1.387,0.901c-1.71-0.136-2.466-0.803-2.362-2.109
			L196.47,54.837z M214.776,74.099c-0.993,1.034-3.285,1.864-6.993,2.684c-4.009,0.795-6.495,1.509-7.455,2.142
			c-1.805,1.07-2.966,4.217-3.388,9.546c-0.392,4.928,0.291,7.814,1.943,8.654c5.229,0.415,9.673-0.75,13.432-3.488
			c0.215-2.715,0.484-4.818,0.713-6.42C213.115,86.111,213.659,81.802,214.776,74.099z M202.859,32.981l1.847,0.955
			c3.938,6.485,6.218,10.917,6.821,13.494c-1.137,0.314-2.059,0.444-2.871,0.48c-6.438-9.416-9.621-13.918-9.36-13.392
			C200.273,33.686,201.528,33.178,202.859,32.981z"/>
	</g>
</g>
<g>
	<g>
		<path fill="#FFFFFF" d="M64.322,73.515c-1.42,15.416-2.12,24.379-2.168,26.944c-1.392,0.813-2.459,0.84-3.34,0.194
			c-0.286-1.656-0.131-4.714,0.53-9.166c0.108-1.182,0.508-4.153,1.124-8.799l0.608-8.657c-2.451-1.981-5.655-1.899-9.682,0.3
			l-2.295,24.927c-0.267,0.163-0.769,0.18-1.582,0.168c-0.877-0.019-1.486-0.2-1.774-0.478c0.464-5.034,0.727-7.895,0.857-8.635
			c0.108-1.181,0.508-4.152,1.124-8.798l0.608-8.657c-2.508-2.049-5.78-1.912-9.806,0.288c-0.223,1.735-0.399,2.973-0.469,3.719
			l-0.321,4.859l-0.784,8.516c-0.063,0.684-0.115,1.933-0.094,3.753c0.026,1.758-0.031,3.068-0.169,3.871
			c-0.34,0.282-0.915,0.418-1.729,0.405c-0.813-0.013-1.368-0.126-1.65-0.466c0.054-2.628,0.392-6.296,0.945-10.945
			c0.56-5.402,0.96-9.064,1.086-11.121l0.693-7.521c0.968-0.978,1.924-1.14,2.928-0.482l-0.116,2.621
			c4.327-2.735,7.928-3.031,10.796-0.823l1.489,2.205c4.53-2.905,8.261-3.251,11.254-1.032L64.322,73.515z"/>
		<path fill="#FFFFFF" d="M86.781,75.332c0.016,0.503-0.02,1.565-0.174,3.244c-0.058,1.311-0.155,3.058-0.344,5.108l-0.526,5.029
			c-0.555,6.029-0.841,9.138-0.933,9.442c0.092-0.305-0.425,0.525-1.428,2.565c-0.191,0.044-0.655,0.314-1.267,0.822
			c-0.604,0.446-1.131,0.711-1.577,0.796c-3.516,0.741-6.257,0.552-8.223-0.569c-0.773-0.447-1.717-1.787-2.827-4.021
			c0.018-0.876,0.195-2.803,0.476-5.849c0.162-2.43,0.288-4.487,0.38-6.171l0.31-3.357c-0.229-2.967,0.058-5.386,0.919-7.249
			c0.277-0.978,1.172-1.836,2.806-2.563c1.192-0.705,3.059-1.223,5.541-1.621c0.824-0.111,2.231,0.269,4.158,1.135
			c0.056,0.068,0.118,0.074,0.181,0.08c1.271,0.493,2.203,0.578,2.734,0.252c0.905-0.982,1.162-2.401,0.633-4.142
			c0.599-0.384,1.277-0.26,1.904,0.425c1.031,1.726,1.076,3.297,0.198,4.658c-0.736,1.186-1.737,1.846-2.998,1.918
			C86.787,75.271,86.787,75.271,86.781,75.332z M72.91,96.622c0.24,2.154,1.528,3.15,3.732,3.04
			c1.695-0.032,2.764-0.059,3.216-0.205c0.774-0.243,1.471-0.993,2.089-2.253c0.171-1.176,0.801-8.014,1.939-20.384
			c-0.418-1.604-1.908-2.432-4.599-2.491c-2.689-0.06-4.403,0.848-5.078,2.729c-0.227,1.108-0.543,5.217-0.941,12.264L72.91,96.622z
			 M78.414,67.478c-0.491-0.106-1.039-0.283-1.7-0.595c0.641-1.509,2.497-3.97,5.581-7.511l1.227-0.388
			c0.792,0.261,1.503,0.702,2.011,1.313C85.747,60.004,83.332,62.414,78.414,67.478z"/>
		<path fill="#FFFFFF" d="M93.27,73.61c0.503-0.705,1.091-0.965,1.895-0.828c0.678,0.125,1.146,0.482,1.354,0.94l-0.93,7.374
			l-1.682,22.35c-0.34,0.282-0.849,0.361-1.477,0.366c-0.813-0.013-1.355-0.251-1.738-0.85l1.021-9.748L93.27,73.61z M95.576,67.616
			c-1.057-0.098-1.599-0.335-1.694-0.657c-0.191-1.334-0.083-2.516,0.314-3.419c0.888-0.796,2.012-0.756,3.436,0.128
			c-0.033-0.316-0.147,0.927-0.411,3.786C97.142,67.635,96.57,67.708,95.576,67.616z"/>
	</g>
</g>
<g>
	<g>
		<path fill="#F17423" d="M269.866,64.302c1.836,19.857,3.063,31.374,3.605,34.636c-1.57,1.355-2.917,1.643-4.184,1.032
			c-0.754-2.03-1.276-5.939-1.489-11.734c-0.141-1.521-0.336-5.379-0.65-11.407l-1.27-11.106c-3.57-1.933-7.609-1.074-12.19,2.66
			l2.968,32.109c-0.298,0.271-0.931,0.408-1.964,0.586c-1.114,0.183-1.93,0.097-2.359-0.186c-0.6-6.486-0.94-10.17-0.948-11.139
			c-0.141-1.521-0.337-5.379-0.651-11.407l-1.27-11.106c-3.657-2.004-7.769-1.06-12.351,2.675c0.128,2.25,0.195,3.858,0.284,4.819
			l0.737,6.231l1.015,10.97c0.081,0.88,0.31,2.475,0.765,4.774c0.447,2.22,0.683,3.895,0.699,4.942
			c-0.364,0.437-1.063,0.743-2.096,0.921c-1.034,0.175-1.762,0.163-2.199-0.2c-0.552-3.343-0.988-8.066-1.383-14.087
			c-0.564-6.972-0.92-11.705-1.245-14.339l-0.896-9.689c0.995-1.466,2.167-1.896,3.595-1.302l0.471,3.35
			c4.835-4.486,9.324-5.708,13.479-3.588l2.406,2.441c5.052-4.747,9.695-6.064,14.008-3.959L269.866,64.302z"/>
		<path fill="#F17423" d="M298.74,61.311c0.14,0.633,0.345,1.986,0.545,4.148c0.235,1.675,0.522,3.908,0.768,6.552l0.519,6.493
			c0.718,7.767,1.088,11.771,1.046,12.178c0.042-0.407-0.414,0.766-1.203,3.584c-0.233,0.103-0.757,0.555-1.41,1.342
			c-0.662,0.708-1.266,1.166-1.812,1.379c-4.277,1.769-7.793,2.174-10.547,1.217c-1.086-0.384-2.595-1.859-4.528-4.428
			c-0.183-1.112-0.413-3.595-0.775-7.519c-0.368-3.115-0.693-5.75-0.973-7.904l-0.4-4.324c-0.988-3.705-1.196-6.834-0.546-9.398
			c0.122-1.303,1.052-2.6,2.95-3.905c1.345-1.176,3.586-2.271,6.635-3.359c1.019-0.337,2.89-0.188,5.533,0.456
			c0.088,0.074,0.168,0.066,0.248,0.059c1.726,0.325,2.927,0.215,3.523-0.325c0.915-1.458,0.905-3.314-0.177-5.396
			c0.67-0.627,1.558-0.628,2.513,0.092c1.714,1.941,2.139,3.92,1.349,5.851c-0.652,1.676-1.766,2.747-3.345,3.136
			C298.733,61.23,298.733,61.23,298.74,61.311z M286.192,91.543c0.812,2.671,2.678,3.629,5.443,2.968
			c2.139-0.438,3.485-0.726,4.024-1.018c0.923-0.488,1.628-1.604,2.112-3.344c-0.061-1.528-0.874-10.337-2.348-26.271
			c-0.905-1.936-2.988-2.631-6.409-2.072s-5.377,2.112-5.788,4.653c-0.027,1.456,0.542,6.733,1.698,15.751L286.192,91.543z
			 M286.294,53.335c-0.649-0.021-1.384-0.114-2.295-0.353c0.456-2.062,2.228-5.617,5.299-10.827l1.462-0.781
			c1.063,0.145,2.068,0.536,2.855,1.19C293.82,42.142,291.327,45.764,286.294,53.335z"/>
		<path fill="#F17423" d="M308.062,49.466c-1.361,0.126-2.104-0.048-2.301-0.434c-0.557-1.645-0.697-3.166-0.407-4.404
			c0.937-1.218,2.37-1.431,4.381-0.647c-0.116-0.392,0.031,1.209,0.372,4.893C310.049,49.12,309.343,49.347,308.062,49.466z
			 M306.553,57.6c0.472-1.012,1.154-1.479,2.203-1.496c0.889,0,1.565,0.341,1.938,0.872l0.561,9.558l3.138,28.701
			c-0.363,0.438-0.988,0.657-1.782,0.811c-1.033,0.177-1.776,0.003-2.403-0.666l-1.002-12.586L306.553,57.6z"/>
	</g>
</g>
<g>
	<g>
		<path fill="#F17423" d="M142.964,245.808c-15.817,8.944-23.418,36.401-64.561,40.896c-22.652,2.475-39.324-15.69-41.812-38.471
			c-3.398-31.108,18.418-85.661,55.775-89.742c12.178-1.33,26.99,5.672,29.018,24.224c2.047,18.741-14.607,41.633-31.961,43.528
			c-7.635,0.834-11.656-0.897-12.076-4.747c-0.076-0.693-0.242-1.634-0.353-2.643c-0.338-3.093-0.31-6.927,2.972-7.285
			c2.02-0.221,2.801,1.099,6.902,0.65c10.791-1.179,22.076-12.437,20.512-26.761c-0.82-7.509-5.394-13.715-15.679-12.591
			c-24.23,2.647-39.529,49.655-36.868,74.012c1.896,17.354,11.584,24.788,25.908,23.223c26.818-2.93,38.961-26.797,60.74-37.86
			L142.964,245.808z"/>
		<path fill="#F17423" d="M197.114,245.831c-3.264,5.784-11.717,17.243-21.057,18.264c-5.553,0.606-9.424-2.674-12.881-9.192
			c-3.521,5.174-11.055,11.616-18.564,12.437c-8.14,0.889-16.576-5.022-17.789-16.128c-2.061-18.867,11.992-44.539,29.345-46.435
			c3.849-0.421,4.292,3.043,6.4,3.643c1.058,0.331,2.138,0.277,3.21,0.16c0.947-0.104,1.887-0.271,2.833-0.374
			c2.524-0.275,4.619,0.198,5.185,5.373c0.889,8.14-1.833,20.633-0.826,29.846c0.434,3.976,1.193,6.255,3.529,6
			c3.471-0.379,7.537-4.654,10.65-8.89c1.834-2.499,3.633-5.313,5.405-8.381L197.114,245.831z M148.513,254.525
			c6.247-0.683,8.802-13.54,8.909-18.979l1.823-18.973c-10.35,1.131-17.777,19.055-16.564,30.161
			C143.136,250.898,144.663,254.946,148.513,254.525z"/>
		<path fill="#F17423" d="M192.464,205.026c0.926-3.805,1.93-4.554,5.779-4.974c4.354-0.476,4.598,0.008,5.17,5.245
			c0.338,3.093,0.799,7.896,1.457,12.165l0.694-0.075c2.606-7.117,6.183-18.811,15.396-19.817c3.281-0.358,6.424,1.533,6.831,5.257
			c0.317,2.902-0.819,11.2-0.44,14.671c0.662,6.058,3.386,7.611,6.036,7.322c3.786-0.414,7.856-2.901,10.974-5.35
			c1.824-1.412,3.629-3.015,5.35-4.799l0.667,14.869c-4.044,3.315-10.461,8.869-17.465,9.635
			c-12.558,1.371-16.001-9.683-18.476-20.075l-1.01,0.11l-7.856,32.722c-1.624,6.754-3.107,8.959-6.199,9.297
			c-6.878,0.752-8.717-5.561-9.454-12.313C188.71,237.873,190.144,213.58,192.464,205.026z"/>
		<path fill="#F17423" d="M240.605,230.097c-1.559-14.261,4.719-35.124,22.009-37.013c9.401-1.027,17.278,4.434,18.319,13.962
			c1.137,10.412-8.496,22.767-22.758,28.411c3.09,4.323,5.36,5.225,8.578,4.873c10.097-1.103,22.117-11.483,27.982-18.573
			l9.064,7.566c-3.303,4.256-6.85,8.027-10.69,11.448c-6.705,5.841-15.745,11.937-25.904,13.047
			C251.366,255.549,242.128,244.042,240.605,230.097z M269.625,211.091c-0.413-3.786-2.288-6.327-4.307-6.106
			c-10.79,1.179-10.359,14.477-9.746,20.093C261.568,224.423,270.204,216.391,269.625,211.091z"/>
	</g>
</g>
<g>
	<g>
		<path fill="#F17423" d="M246.809,265.406c7.074-0.813,18.971-1.976,20.43-1.149c1.201,0.683-0.656,1.908-22.472,4.417
			l-81.562,9.379c-16.706,1.921-20.662,1.286-21.588,0.76c-0.808-0.46,0.241-1.339,17.145-3.283L246.809,265.406z"/>
	</g>
</g>
<g>
	<g>
		<path fill="#FFFFFF" d="M30.837,132.071c0.02,0.807,0.088,1.484,0.193,1.91c0.229,2.279,0.428,4.251,0.533,5.92l0.705,5.157
			l0.223,2.839c0.057,1.178,0.148,2.102,0.285,2.834c0.619,4.295,1.027,7.738,1.158,10.276c-0.289,0.216-0.652,0.315-1.084,0.359
			c-2.588,0.883-5.236,1.148-8.064,0.873c-3.211-0.362-5.184-1.408-5.93-3.263c-1.389-3.906-2.141-6.444-2.246-7.491
			c-0.074-0.738-0.285-2.212-0.564-4.361c-0.246-1.843-0.457-3.314-0.5-4.368c-0.273-3.333,0.211-5.935,1.332-7.789
			c0.801-1.324,2.131-2.33,3.998-2.953c2.168-0.716,4.533-0.705,7.035,0.039c-0.223-1.596-0.371-3.074-0.502-4.368
			c-1.67,0.105-2.963,0.236-3.881,0.391c-0.32-0.715-0.42-1.7-0.359-2.951c1.287-0.191,2.643-0.328,3.938-0.458
			c-0.242-2.403-0.365-4.257-0.428-5.496c0.277-0.338,0.764-0.449,1.57-0.469c0.746-0.014,1.318,0.116,1.658,0.394
			c0.148,0.855,0.217,2.156,0.26,3.832c-0.006,0.561,0.039,0.992,0.082,1.424c0.924-0.094,1.848-0.187,2.777-0.218
			c0.426,0.517,0.463,1.509,0.174,2.97c-0.67,0.131-1.594,0.224-2.771,0.278L30.837,132.071z M28.425,136.544l-0.537-1.626
			c-1.078-0.824-2.533-1.052-4.418-0.614c-1.521,0.34-2.586,0.883-3.264,1.573c-1.176,1.302-1.434,5.558-0.707,12.767
			c0.9,4.64,1.697,7.608,2.395,8.97c1.91,2.297,4.449,2.788,7.561,1.542c0.646-0.376,0.998-0.598,1.047-0.728
			c-0.166-1.041-0.266-2.649-0.434-4.935l-0.1-1.608L28.425,136.544z"/>
		<path fill="#FFFFFF" d="M54.997,156.96c-2.297,1.912-4.365,2.991-6.264,3.306c-1.656,0.229-3.801-0.053-6.316-0.92
			c-1.613-1.828-2.738-6.197-3.426-13.036c-0.773-7.078-0.389-11.909,1.096-14.486c0.793-1.386,2.752-2.329,5.82-2.762
			c3.129-0.44,5.176,0.101,6.137,1.623c2.461,4.046,3,9.405,1.617,16.08l-1.656,1.473c-4.17,1.229-7.336,1.92-9.506,2.014
			c0.354,2.89,1.205,5.169,2.506,6.967c3.246,0.732,6.105,0.071,8.705-1.933C54.282,155.414,54.708,155.932,54.997,156.96z
			 M49.818,126.49c-3.162-1.736-5.004-2.733-5.479-3.122c-1.742,1.856-2.969,3.286-3.787,4.426
			c-0.246,0.025-0.504-0.073-0.721-0.362c-0.215-0.289-0.48-0.449-0.666-0.431c0.615-1.93,1.939-4.24,4.094-6.946l1.879,0.122
			l4.414,3.664c0.943,0.714,1.498,1.28,1.676,1.822L49.818,126.49z M46.519,132.049c-1.535,0.218-2.957,0.92-4.27,2.109
			c-1.068,3.594-1.184,8.023-0.35,13.229c2.656-0.204,5.348-0.663,8.076-1.371l1.393-1.013c0.584-3.48,0.188-7.424-1.189-11.829
			C49.273,132.208,48.052,131.832,46.519,132.049z M48.652,120.447c1.92-1.313,2.943-2.288,3.182-2.997
			c0.34-0.967,0.098-1.503-0.727-1.669c-1.141,0.426-2.047,0.703-2.588,0.883c-0.82-0.104-1.318-0.739-1.547-1.774
			c2.148-1.522,3.838-2.065,5.063-1.629c1.227,0.437,2.041,1.103,2.455,2.119c0.561,1.872-0.393,3.523-2.857,5.016L48.652,120.447z"
			/>
	</g>
</g>
<g>
	<path fill="#F17423" d="M169.159,116.123c-1.511,0.152-3.04,0.199-4.528,0.47c-14.677,2.67-24.435,18.059-18.586,32.591
		c5.074,12.608,13.403,23.088,22.131,33.307c0.654,0.766,1.229,0.608,1.807-0.095c0.653-0.794,1.341-1.559,1.99-2.356
		c6.896-8.476,13.476-17.169,18.326-27.004c2.439-4.945,4.2-10.012,3.351-15.736C191.861,125.245,181.516,116.241,169.159,116.123z
		 M169.081,158.621c-11.515-0.033-19.122-9.476-18.899-18.947c0.015-10.316,8.577-18.762,19.023-18.686
		c10.119,0.075,18.889,8,18.851,18.884C188.02,150.54,179.544,158.65,169.081,158.621z"/>
	<path fill="#FFFFFF" d="M137.722,153.062c-1.52-3.652-2.628-7.587-6.63-9.777c0.489-0.273,0.768-0.451,1.065-0.591
		c3.97-1.863,6.524-4.84,7.027-9.242c0.592-5.18-0.797-10.568-6.502-12.764c-2.162-0.833-4.532-1.415-6.838-1.537
		c-5.052-0.265-10.123-0.192-15.186-0.198c-2.454-0.003-2.795,0.393-2.799,2.81c-0.016,13.76-0.029,27.522-0.042,41.282
		c-0.005,4.666,0.395,5.019,5.142,4.53c0.098-0.01,0.196-0.017,0.293-0.026c1.209-0.12,1.859-0.697,1.834-1.99
		c-0.041-2.097-0.007-4.196-0.005-6.294l0.012-12.253c2.072,0.002,3.928,0.001,5.785,0.006c5,0.014,7.213,1.467,9.116,6.091
		c1.428,3.47,2.782,6.969,4.174,10.454c1.698,4.243,1.995,4.423,6.603,4.063c0.098-0.008,0.196-0.017,0.294-0.026
		c2.052-0.181,2.301-0.539,1.534-2.473C140.998,161.097,139.387,157.068,137.722,153.062z M126.081,140.251
		c-3.342,0.581-6.834,0.337-10.261,0.378c-0.235,0.003-0.681-0.656-0.684-1.011c-0.044-4.389-0.01-8.779-0.03-13.169
		c-0.004-0.828,0.326-1.121,1.136-1.099c1.375,0.038,2.752,0.013,4.128,0.015c0.002-0.037,0.005-0.074,0.007-0.11
		c1.71,0.116,3.446,0.087,5.126,0.376c3.934,0.676,6.08,2.959,6.279,6.436C132,135.874,129.727,139.617,126.081,140.251z"/>
	<path fill="#FFFFFF" d="M261.951,138.377c3.321-4.537,6.642-9.073,9.959-13.614c1.175-1.61,0.156-3.048-0.366-4.536
		c-0.449-1.28-1.508-1.005-2.456-1.007c-9.439-0.015-18.877-0.021-28.316-0.032c-3.128-0.004-3.703-0.604-3.62,3.642
		c0.042,2.2,0.275,2.473,2.44,2.477c6.882,0.012,13.764,0.013,20.646,0.026c0.567,0.001,1.132,0.059,2.007,0.107
		c-0.426,0.637-0.669,1.033-0.943,1.408c-5.285,7.22-10.575,14.435-15.862,21.654c-3.322,4.536-6.607,9.1-9.98,13.598
		c-1.27,1.693-0.297,3.136,0.231,4.654c0.459,1.324,1.635,1.013,2.626,1.015c10.373,0.022,20.745,0.028,31.118,0.037
		c2.546,0.002,2.871-0.312,2.919-2.837c0.007-0.388-0.001-0.782-0.053-1.167c-0.254-1.886-0.517-2.113-2.415-2.116
		c-7.619-0.009-15.239-0.014-22.859-0.026c-0.56-0.001-1.121-0.049-1.966-0.088c0.455-0.676,0.73-1.117,1.035-1.535
		C251.379,152.816,256.665,145.597,261.951,138.377z"/>
	<path fill="#FFFFFF" d="M94.799,120.958c-2.532-1.152-5.145-1.912-7.936-1.945c-5.015-0.06-10.031-0.099-15.047-0.102
		c-2.653-0.002-2.978,0.36-3.002,2.949c-0.004,0.439-0.002,0.879-0.002,1.318l-0.039,39.685c-0.005,4.81,0.603,5.315,5.472,4.661
		c1.303-0.176,1.882-0.831,1.867-2.143c-0.034-2.83-0.005-5.662-0.002-8.493l0.009-9.309c3.316,0.003,6.413,0.15,9.49-0.038
		c2.324-0.142,4.722-0.422,6.911-1.156c4.316-1.447,7.253-4.446,8.3-8.942c0.693-2.973,0.597-5.992-0.059-8.992
		C100.001,124.974,98.095,122.457,94.799,120.958z M93.583,134.785c-0.504,4.004-2.829,6.237-6.902,6.502
		c-3.457,0.225-6.942,0.04-10.484,0.037l0.016-15.707c0.105-0.091,0.178-0.211,0.251-0.209c3.579,0.042,7.194-0.207,10.729,0.217
		C92.522,126.264,94.211,129.797,93.583,134.785z"/>
	<path fill="#FFFFFF" d="M226.224,121.815c-2.893-1.674-6.005-2.635-9.365-2.677c-4.913-0.06-9.827-0.093-14.741-0.104
		c-2.913-0.007-3.304,0.411-3.307,3.3c-0.015,13.657-0.028,27.315-0.041,40.972c-0.004,4.352,0.458,4.764,4.944,4.396
		c2.075-0.171,2.376-0.468,2.382-2.493c0.014-5.17,0.009-10.34,0.025-15.51c0.002-0.618,0.088-1.236,0.144-1.993
		c3.264,0.003,6.409,0.147,9.535-0.038c2.273-0.134,4.626-0.404,6.757-1.143c4.692-1.625,7.795-4.899,8.474-9.919
		c0.303-2.239,0.259-4.574,0.005-6.824C230.661,126.472,229.295,123.591,226.224,121.815z M223.701,134.222
		c-0.388,4.904-3.101,7.177-8.134,7.357c-1.323,0.047-2.649,0.004-3.975,0.003c-1.374,0.001-2.749-0.026-4.122,0.008
		c-0.891,0.021-1.361-0.239-1.354-1.231c0.033-4.627,0.019-9.253,0.028-13.88c0.001-0.662,0.038-1.304,0.982-1.281
		c3.33,0.079,6.693-0.118,9.983,0.284C222.238,126.106,224.11,129.07,223.701,134.222z"/>
	<path fill="#FFFFFF" d="M312.463,119.277c-0.915-0.129-1.863-0.029-2.797-0.027c-1.28,0.003-2.189,0.532-2.902,1.64
		c-2.802,4.357-5.67,8.67-8.518,12.997c-0.584,0.888-1.185,1.766-1.931,2.875c-0.509-0.744-0.848-1.215-1.163-1.703
		c-2.571-3.982-5.126-7.974-7.709-11.948c-2.714-4.176-2.727-4.191-7.817-3.861c-0.678,0.044-1.647,0.281-1.906,0.744
		c-0.24,0.428,0.143,1.379,0.508,1.934c4.426,6.741,8.924,13.434,13.324,20.191c0.547,0.84,0.886,1.969,0.899,2.969
		c0.077,6,0.003,12.003,0.032,18.004c0.021,4.234-0.972,4.785,4.79,4.646c2.008-0.048,2.525-0.576,2.528-2.549
		c0.011-6.783-0.007-13.566,0.052-20.348c0.007-0.772,0.267-1.641,0.682-2.294c2.02-3.174,4.131-6.291,6.212-9.426
		c2.433-3.665,4.89-7.314,7.279-11.006c0.391-0.604,0.892-1.742,0.644-2.021C314.207,119.575,313.248,119.389,312.463,119.277z"/>
</g>
</svg>
