<svg width="24" height="24" viewBox="0 0 24 24" fill="none" xmlns="http://www.w3.org/2000/svg">
<g clip-path="url(#clip0)">
<path d="M1.48826 22.4943L1.4883 20.9723C1.4883 20.376 1.93603 20.1889 2.11455 20.1064L8.70143 16.998C9.17353 16.7813 9.49941 16.3343 9.56281 15.8186C9.62655 15.303 9.41843 14.7911 9.01303 14.466C7.45491 13.215 6.72891 10.4651 6.72891 9.00074V5.25262C6.72891 3.68549 9.45703 1.50599 11.9819 1.50599C14.5289 1.50599 17.2304 3.65137 17.2304 5.25262V9.00074C17.2304 10.4434 16.6304 13.2034 15.0213 14.4705C14.8195 14.6293 14.6619 14.8373 14.5635 15.0746C14.4651 15.3118 14.4293 15.5703 14.4596 15.8254C14.5211 16.3447 14.8484 16.7936 15.3232 17.0119L19.1257 18.8224L20.0197 17.5552L15.9494 15.6487C18.0273 14.0134 18.7304 10.8007 18.7304 9.00034V5.25222C18.7304 2.76972 15.2939 0.00561523 11.9819 0.00561523C8.66991 0.00561523 5.22891 2.76974 5.22891 5.25222V9.00034C5.22891 10.638 5.97628 13.9515 8.07403 15.6352L1.48716 18.7443C1.48716 18.7443 -0.0117188 19.4122 -0.0117188 20.2436V22.4943C-0.0117188 23.3227 0.659531 23.9936 1.48713 23.9936H16.4804L15.2616 22.494L1.48826 22.4943ZM23.7236 16.9572C23.3977 16.7014 22.9259 16.7595 22.6709 17.0854L19.4636 21.9769L17.4701 19.983C17.1772 19.6902 16.7021 19.6902 16.4092 19.983C16.1163 20.2759 16.1163 20.7507 16.4092 21.0435L19.0608 23.6952C19.3537 23.988 19.8284 23.988 20.1213 23.6952C20.1926 23.6243 20.2458 23.5418 20.2826 23.454L23.8522 18.0094C24.1072 17.6835 24.0498 17.2122 23.7236 16.9572Z" fill="white"/>
</g>
<defs>
<clipPath id="clip0">
<rect width="24" height="24" fill="white"/>
</clipPath>
</defs>
</svg>
