<svg width="26" height="26" viewBox="0 0 26 26" fill="none" xmlns="http://www.w3.org/2000/svg">
<path d="M11.9891 8.58107L11.9371 8.88389L12.9664 8.75237C12.9725 8.75237 12.9985 8.74778 13.0138 8.74625L13.988 8.87013L13.9406 8.59331C15.6076 8.28436 18.9999 7.48448 20.9376 5.82507C21.6932 5.17966 22.1092 4.31095 22.1092 3.37801C22.1092 2.44507 21.6932 1.57637 20.9376 0.929424C19.4969 -0.306341 17.0208 -0.304811 15.5801 0.929424C14.3352 1.99542 13.5016 3.56919 12.9633 4.94872C12.4249 3.57225 11.5914 2.00307 10.3465 0.94013C8.90729 -0.292576 6.43424 -0.291047 4.99506 0.94013C4.23953 1.58554 3.82353 2.45272 3.82353 3.3826C3.82353 4.31248 4.23953 5.17813 4.99506 5.82201C6.93282 7.47684 10.3251 8.27366 11.9891 8.58107ZM16.5742 2.09178C17.0193 1.71095 17.6158 1.50142 18.2581 1.50142C18.8989 1.50142 19.4985 1.71095 19.942 2.09178C20.3534 2.44201 20.5782 2.89931 20.5782 3.37801C20.5782 3.85519 20.3534 4.31095 19.942 4.66272C18.3636 6.01319 15.4624 6.73507 13.8764 7.04554C14.2511 5.68742 15.0739 3.37648 16.5742 2.09178ZM5.98765 2.10248C6.43271 1.72319 7.02918 1.51366 7.67153 1.51366C8.31235 1.51366 8.91035 1.72319 9.35388 2.10248C10.8466 3.37648 11.6694 5.67672 12.0456 7.03178C10.4612 6.72437 7.56753 6.00707 5.98765 4.65813C5.57776 4.30942 5.35294 3.85672 5.35294 3.3826C5.35294 2.90695 5.57776 2.45272 5.98765 2.10248ZM26 9.17601H0V15.2937H1.52941V25.9995H24.4706V15.2937H26V9.17601ZM10.6692 10.7054H15.2666L16.8969 19.6418L14.3765 18.5941L12.3867 20.4371L10.6692 10.7054ZM1.52941 10.7054H9.11529L9.65518 13.7642H1.52941V10.7054ZM22.9412 24.4701H3.05882V15.2937H9.92588L11.3666 23.4653L14.6946 20.3835L18.9035 22.1347L17.6571 15.2937H22.9412V24.4701ZM24.4706 13.7642H17.3772L16.8189 10.7054H24.4706V13.7642Z" fill="white"/>
</svg>
