<svg width="24" height="24" viewBox="0 0 24 24" fill="none" xmlns="http://www.w3.org/2000/svg">
<g clip-path="url(#clip0)">
<path d="M20.25 16.5C19.0151 16.5 17.9228 17.0996 17.2399 18.0206L7.36427 12.9881C7.45015 12.6728 7.50002 12.3428 7.50002 12C7.50002 11.571 7.42465 11.1608 7.2919 10.7771L17.2238 5.95802C17.9055 6.891 19.0054 7.5 20.25 7.5C22.3211 7.5 24 5.82073 24 3.75C24 1.67888 22.3211 0 20.25 0C18.1789 0 16.5 1.6789 16.5 3.75C16.5 4.04135 16.5367 4.32338 16.5994 4.59562L6.525 9.48415C5.83873 8.72775 4.85173 8.25002 3.75 8.25002C1.67885 8.25 0 9.9289 0 12C0 14.0707 1.67885 15.75 3.75 15.75C4.94285 15.75 6.00298 15.1916 6.6896 14.3235L16.6061 19.3774C16.539 19.6579 16.5 19.9489 16.5 20.25C16.5 22.3211 18.1789 24 20.25 24C22.3211 24 24 22.3211 24 20.25C24 18.1789 22.3211 16.5 20.25 16.5ZM20.25 1.50002C21.4924 1.50002 22.5 2.50765 22.5 3.75002C22.5 4.9924 21.4924 6.00002 20.25 6.00002C19.0077 6.00002 18 4.9924 18 3.75002C18 2.50765 19.0077 1.50002 20.25 1.50002ZM3.75005 14.25C2.5073 14.25 1.50005 13.2424 1.50005 12C1.50005 10.7576 2.5073 9.75002 3.75005 9.75002C4.99242 9.75002 6.00005 10.7576 6.00005 12C6.00005 13.2424 4.99242 14.25 3.75005 14.25ZM20.25 22.5C19.0077 22.5 18 21.4924 18 20.25C18 19.0076 19.0077 18 20.25 18C21.4924 18 22.5 19.0076 22.5 20.25C22.5 21.4924 21.4924 22.5 20.25 22.5Z" fill="white"/>
</g>
<defs>
<clipPath id="clip0">
<rect width="24" height="24" fill="white"/>
</clipPath>
</defs>
</svg>
