<svg width="24" height="24" viewBox="0 0 24 24" fill="none" xmlns="http://www.w3.org/2000/svg">
<g clip-path="url(#clip0)">
<path d="M3.64883 0.255615H20.5289C22.3758 0.255615 23.873 1.81993 23.873 3.74979V20.0378C23.873 21.9676 22.3758 23.532 20.5289 23.532H3.64883C1.80184 23.532 0.304688 21.9676 0.304688 20.0378V3.74979C0.304688 1.81993 1.80184 0.255615 3.64883 0.255615V0.255615Z" stroke="white" stroke-width="0.377902" stroke-miterlimit="10"/>
<path d="M4.50336 20.6775C4.41079 20.6345 4.34392 20.5861 4.45192 20.4894C4.5188 20.4356 4.59086 20.3872 4.66287 20.3388C5.33684 19.8819 5.96963 19.382 6.38635 18.6456C6.73618 18.0327 6.67962 17.6725 6.24233 17.221C3.80369 14.673 2.73357 11.625 3.26866 8.02338C3.57218 5.99139 4.46224 4.23362 5.75869 2.70692C6.54073 1.78235 7.47191 1.03512 8.49058 0.411552C8.55228 0.373927 8.63978 0.363162 8.65004 0.266433C8.62947 0.212686 8.59347 0.228807 8.5626 0.228807C6.82881 0.228807 5.09503 0.191142 3.36637 0.239533C1.70976 0.29328 0.279555 1.63182 0.284682 3.5509C0.294947 9.15763 0.284682 14.7644 0.284682 20.3765C0.284682 22.1182 1.55545 23.5749 3.21717 23.6394C4.6217 23.6986 6.02626 23.6502 7.4359 23.6448C7.53879 23.6502 7.64167 23.6556 7.7446 23.6556H15.1736C17.0257 23.6556 18.8779 23.6663 20.73 23.6556C22.4483 23.6556 23.8425 22.2042 23.8425 20.4141V17.2371C23.8425 17.1619 23.8683 17.0812 23.8219 17.0006C23.7293 17.006 23.6933 17.0866 23.6419 17.1404C22.6438 18.1886 21.4656 19.0326 20.1743 19.6293C17.0103 21.086 13.7897 21.1882 10.5228 20.0163C10.2398 19.9088 9.9311 19.898 9.63785 19.9733C9.20569 20.0862 8.77867 20.2206 8.35165 20.355C7.09633 20.7635 5.81531 20.9463 4.50336 20.6775ZM8.23332 11.6197C8.32077 11.5014 8.36708 11.4315 8.41852 11.3616C9.0925 10.4693 9.76647 9.57691 10.4404 8.6792C10.636 8.42117 10.8314 8.15777 10.9549 7.84599C11.099 7.49119 10.9446 7.15791 10.5948 7.02893C10.4404 6.98054 10.2758 6.95905 10.1112 6.96976C9.19539 6.9644 8.27451 6.9644 7.35872 6.96976C7.23008 6.96976 7.10151 6.98589 6.97801 7.01815C6.68992 7.09339 6.51498 7.39981 6.58699 7.70624C6.63848 7.91052 6.79281 8.07177 6.98831 8.12016C7.11176 8.15242 7.2404 8.16854 7.36902 8.16313C7.92462 8.16854 8.4854 8.16313 9.04106 8.16854C9.10281 8.16854 9.17994 8.12552 9.22626 8.2223C9.17994 8.28676 9.13368 8.35128 9.08737 8.41044C8.28995 9.46406 7.49765 10.523 6.70018 11.5766C6.50467 11.84 6.40179 12.1303 6.54585 12.4529C6.68992 12.7754 6.98314 12.8345 7.28158 12.856C7.51822 12.8722 7.75999 12.8614 8.00182 12.8614C8.83529 12.8614 9.66359 12.8668 10.497 12.856C10.9395 12.8507 11.1761 12.5711 11.1299 12.1411C11.0938 11.8024 10.8726 11.625 10.461 11.6197C9.7356 11.6143 9.01019 11.6197 8.23332 11.6197ZM14.2012 8.7921C13.5582 8.20616 12.8482 8.16854 12.1536 8.59859C11.3099 9.1146 11.0012 9.95858 11.1041 10.9369C11.2019 11.8508 11.5826 12.598 12.4983 12.9044C13.0694 13.0979 13.5993 13.028 14.0675 12.6303C14.191 12.5281 14.227 12.5496 14.3144 12.6625C14.4842 12.8883 14.7774 12.9743 15.0347 12.8722C15.292 12.7915 15.4617 12.5442 15.4617 12.2647C15.4669 11.1896 15.472 10.1145 15.4617 9.03936C15.4565 8.60932 15.0707 8.33515 14.6694 8.42117C14.4482 8.46956 14.3247 8.62544 14.2012 8.7921ZM17.7666 10.7864C17.746 12.1303 18.811 13.1463 20.1486 13.0065C21.3782 12.8776 22.1756 11.9153 22.1345 10.5553C22.0933 9.21138 21.1364 8.29218 19.8245 8.33515C18.5949 8.37278 17.7254 9.40489 17.7666 10.7864ZM17.3138 9.71667C17.3138 8.8727 17.319 8.03414 17.3138 7.19017C17.3138 6.76013 17.0515 6.49133 16.6604 6.49673C16.2797 6.50209 16.0276 6.77089 16.0225 7.18481C16.0173 7.43744 16.0225 7.68475 16.0225 7.93736V12.211C16.0225 12.5442 16.218 12.8345 16.4752 12.9044C16.8302 13.0065 17.1955 12.7861 17.2881 12.4153C17.3035 12.3507 17.3138 12.2862 17.3087 12.2163C17.319 11.3831 17.3138 10.5499 17.3138 9.71667Z" fill="#FDFEFE"/>
<path d="M7.42957 23.65C6.02505 23.65 4.61534 23.6984 3.21082 23.6446C1.54904 23.5747 0.27832 22.1179 0.27832 20.3816C0.27832 14.7749 0.288585 9.16817 0.27832 3.55601C0.27832 1.63693 1.71367 0.298435 3.36515 0.250044C5.09381 0.201653 6.8276 0.239279 8.56141 0.239279C8.59228 0.239279 8.63341 0.223144 8.64884 0.276892C8.63859 0.373673 8.54596 0.384452 8.48938 0.422064C7.47071 1.04563 6.53952 1.79283 5.75748 2.71745C4.46615 4.24408 3.57096 5.99655 3.26744 8.0339C2.73235 11.6302 3.80761 14.6835 6.24113 17.2315C6.67329 17.6884 6.72985 18.0433 6.38514 18.656C5.96842 19.3925 5.33563 19.8924 4.66166 20.3494C4.58965 20.3924 4.51759 20.4461 4.44558 20.4945C4.33751 20.5913 4.4044 20.6396 4.49702 20.6827C4.51759 20.7311 4.54333 20.774 4.57421 20.8171C5.16582 21.3653 5.72661 21.9513 6.30801 22.5104C6.58227 22.7754 6.85156 23.0461 7.11574 23.3221C7.22375 23.4242 7.40383 23.4565 7.42957 23.65Z" fill="white" stroke="white" stroke-width="0.046374" stroke-miterlimit="3" stroke-linecap="square"/>
<path d="M7.43154 23.6498C7.40579 23.4617 7.22572 23.4294 7.1177 23.3165C6.85532 23.037 6.58263 22.7682 6.30999 22.5048C5.72859 21.9457 5.16782 21.3598 4.57621 20.8115C4.54534 20.7685 4.51959 20.7255 4.49902 20.6771C5.8109 20.9459 7.09196 20.7631 8.35241 20.36C8.77942 20.2256 9.20644 20.0912 9.63859 19.9783C9.93185 19.8976 10.2406 19.9138 10.5235 20.0213C13.7852 21.1932 17.0058 21.0856 20.175 19.6342C21.4663 19.0375 22.6445 18.199 23.6425 17.1507C23.694 17.097 23.73 17.0163 23.8226 17.011C23.8689 17.0862 23.8431 17.1669 23.8431 17.2475V20.3922C23.8535 22.1876 22.4747 23.6498 20.7563 23.6659H20.7306C18.8785 23.6767 17.0264 23.6659 15.1743 23.6659H7.74018C7.63762 23.6552 7.53461 23.6498 7.43154 23.6498Z" fill="white" stroke="white" stroke-width="0.046374" stroke-miterlimit="3" stroke-linecap="square"/>
<path d="M8.23379 11.6198C9.01069 11.6198 9.74126 11.6144 10.4667 11.6198C10.8732 11.6252 11.0944 11.8026 11.1356 12.1412C11.1819 12.5659 10.9452 12.8508 10.5028 12.8562C9.66925 12.8669 8.84091 12.8616 8.0074 12.8616C7.76561 12.8616 7.52891 12.8723 7.28713 12.8562C6.98872 12.84 6.69544 12.7756 6.55137 12.453C6.40734 12.1305 6.51023 11.8402 6.70575 11.5768C7.49809 10.5232 8.29554 9.46418 9.093 8.41055C9.13932 8.34603 9.18563 8.28151 9.23195 8.2224C9.18046 8.13098 9.10845 8.17401 9.04669 8.16864C8.49106 8.16323 7.93025 8.16864 7.37458 8.16323C7.24594 8.16323 7.11735 8.14711 6.99385 8.12026C6.70058 8.05038 6.52049 7.74395 6.58738 7.44294C6.63369 7.23865 6.78807 7.07199 6.98354 7.02361C7.10705 6.99134 7.23569 6.97522 7.36427 6.97522C8.2801 6.96985 9.20108 6.96985 10.1169 6.97522C10.2815 6.96985 10.441 6.99134 10.6005 7.03437C10.9504 7.158 11.0996 7.49669 10.9606 7.85146C10.8372 8.15788 10.6417 8.42127 10.4461 8.68472C9.77464 9.57912 9.10065 10.4715 8.42419 11.3618C8.36756 11.4317 8.31611 11.5015 8.23379 11.6198Z" fill="white"/>
<path d="M14.2018 8.79201C14.3253 8.62535 14.4539 8.46947 14.6649 8.42649C15.0713 8.34049 15.452 8.61459 15.4571 9.04464C15.4725 10.1198 15.4674 11.1949 15.4571 12.2699C15.4571 12.5495 15.2822 12.7968 15.0301 12.8774C14.7729 12.9795 14.4796 12.8989 14.3099 12.6677C14.2224 12.5549 14.1864 12.5334 14.0629 12.6355C13.5948 13.0333 13.0649 13.1032 12.4938 12.9096C11.5781 12.5978 11.2025 11.8507 11.0996 10.9422C10.9916 9.95847 11.3054 9.11993 12.1491 8.60386C12.8488 8.16846 13.5588 8.20608 14.2018 8.79201ZM12.3806 10.754C12.3909 10.9906 12.4629 11.2163 12.5967 11.4045C12.8745 11.7916 13.4044 11.8722 13.78 11.5819C13.8417 11.5335 13.8983 11.4744 13.9497 11.4045C14.2379 10.9959 14.2379 10.324 13.9497 9.91549C13.8057 9.70586 13.5793 9.58223 13.3375 9.57681C12.7716 9.5392 12.3755 9.99615 12.3806 10.754ZM17.7671 10.7863C17.7259 9.40479 18.5953 8.37269 19.83 8.33506C21.142 8.2921 22.0989 9.21128 22.14 10.5552C22.1812 11.9152 21.3837 12.8774 20.1542 13.0064C18.8114 13.1462 17.7465 12.1302 17.7671 10.7863ZM19.0584 10.6573C19.0481 10.9261 19.1253 11.1895 19.2796 11.4099C19.5625 11.7969 20.0924 11.8722 20.4629 11.5711C20.5194 11.5281 20.5658 11.4744 20.6121 11.4206C20.9104 11.0121 20.9104 10.324 20.6172 9.91549C20.4731 9.71121 20.2468 9.58223 20.005 9.57681C19.4494 9.54455 19.0584 9.98537 19.0584 10.6573ZM17.3143 9.71657C17.3143 10.5498 17.3195 11.383 17.3143 12.2162C17.3195 12.5978 17.0314 12.915 16.6661 12.9258C16.6044 12.9258 16.5375 12.9204 16.4758 12.9043C16.2186 12.8344 16.0231 12.5495 16.0231 12.2108V7.93728C16.0231 7.68467 16.0179 7.43737 16.0231 7.18474C16.0282 6.77083 16.2803 6.50203 16.661 6.50203C17.052 6.49668 17.3143 6.76542 17.3143 7.19547C17.3195 8.03406 17.3143 8.87803 17.3143 9.71657Z" fill="white"/>
<path d="M12.3804 10.7543C12.3753 9.99637 12.7714 9.53941 13.3322 9.57167C13.574 9.58245 13.8004 9.70608 13.9445 9.91571C14.2326 10.3189 14.2326 10.9962 13.9445 11.4047C13.6667 11.7918 13.1367 11.8724 12.7611 11.5821C12.6994 11.5338 12.6428 11.4746 12.5914 11.4047C12.4627 11.2166 12.3907 10.9908 12.3804 10.7543ZM19.0585 10.6576C19.0585 9.99095 19.4495 9.54477 20.0051 9.57703C20.2469 9.58245 20.4733 9.71143 20.6174 9.91571C20.9106 10.3243 20.9106 11.0177 20.6122 11.4209C20.3241 11.8025 19.7891 11.867 19.4238 11.566C19.3672 11.523 19.3208 11.4693 19.2797 11.4101C19.1254 11.1897 19.0533 10.9263 19.0585 10.6576Z" fill="#1355AC"/>
</g>
<defs>
<clipPath id="clip0">
<rect width="24" height="24" fill="white"/>
</clipPath>
</defs>
</svg>
